<svg width="232" height="204" viewBox="0 0 232 204" fill="none" xmlns="http://www.w3.org/2000/svg">
<path d="M94.6104 153.095C87.7705 148.981 85.665 136.967 86.6156 128.72C87.725 119.09 92.5558 118.46 92.8417 110.902C93.3747 96.8307 76.8481 93.2461 76.2705 79.0114C75.7989 67.3739 86.6645 65.3537 85.5612 52.4896C84.7652 43.2064 78.7248 39.7968 80.6705 31.4886C80.8366 30.7783 82.7372 23.1468 88.8899 20.9166C95.0997 18.6656 102.009 23.2333 105.551 27.0709C112.096 34.1652 108.104 39.8235 112.811 51.1041C119.22 66.4621 130.412 65.0648 132.817 77.3544C134.804 87.5027 127.631 90.7965 130.055 102.005C132.307 112.413 139.31 113.356 140.16 120.503C142.113 136.949 108.563 161.486 94.6104 153.095Z" fill="#9BC8E7"/>
<g style="mix-blend-mode:soft-light" opacity="0.7">
<path d="M104.552 160.014C104.525 160.014 104.499 160.006 104.478 159.99C104.456 159.975 104.44 159.953 104.43 159.928C104.421 159.903 104.42 159.875 104.427 159.85C104.434 159.824 104.449 159.801 104.469 159.784C110.227 155.73 114.889 150.635 118.327 144.645C121.584 138.968 124.951 133.101 124.105 126.214C123.466 121.007 120.817 118.38 117.464 115.055C114.197 111.817 110.133 107.788 106.895 99.9762C105.046 95.5145 102.745 89.9632 103.646 82.9992C104.171 78.941 105.536 76.5698 106.74 74.4774C108.001 72.2869 108.996 70.5572 108.545 67.6594C107.811 62.9302 105.029 60.0566 101.808 56.7356C99.8182 54.6822 97.7609 52.5599 95.8743 49.7275C90.5641 41.7599 89.5569 30.5771 92.8798 16.4917C92.8875 16.4591 92.9077 16.431 92.936 16.4135C92.9642 16.3961 92.9982 16.3906 93.0304 16.3985C93.0627 16.4063 93.0905 16.4268 93.1079 16.4553C93.1252 16.4839 93.1306 16.5182 93.1229 16.5508C89.817 30.5646 90.8124 41.6799 96.082 49.5889C97.956 52.4007 100.005 54.5159 101.987 56.5608C105.237 59.9159 108.045 62.8136 108.793 67.6225C109.257 70.6084 108.191 72.4614 106.954 74.6065C105.763 76.6783 104.41 79.0264 103.892 83.034C102.999 89.9316 105.286 95.4476 107.123 99.8802C110.343 107.646 114.387 111.655 117.637 114.879C121.025 118.237 123.701 120.891 124.351 126.186C125.207 133.157 121.818 139.062 118.541 144.773C115.081 150.798 110.396 155.918 104.609 159.991C104.592 160.003 104.572 160.011 104.552 160.014Z" fill="white"/>
</g>
<g style="mix-blend-mode:soft-light" opacity="0.7">
<path d="M103.583 86.4373C103.552 86.4395 103.522 86.4306 103.497 86.4121C92.3979 77.8661 86.8483 69.5578 84.1479 64.0924C81.217 58.1613 80.9124 54.1947 80.9093 54.1553C80.9073 54.1383 80.9088 54.1212 80.9139 54.1049C80.9189 54.0887 80.9273 54.0737 80.9384 54.0609C80.9496 54.0482 80.9634 54.038 80.9787 54.031C80.9941 54.024 81.0108 54.0204 81.0276 54.0203C81.0442 54.0192 81.0608 54.0214 81.0765 54.0269C81.0922 54.0323 81.1067 54.0409 81.1191 54.052C81.1315 54.0632 81.1416 54.0767 81.1487 54.0918C81.1559 54.107 81.16 54.1234 81.1608 54.1401C81.1638 54.179 81.4712 58.1069 84.3815 63.9973C87.0708 69.4349 92.5972 77.7027 103.653 86.2131C103.678 86.234 103.695 86.264 103.699 86.297C103.704 86.33 103.695 86.3634 103.676 86.3903C103.665 86.4042 103.651 86.4156 103.635 86.4237C103.619 86.4318 103.601 86.4364 103.583 86.4373Z" fill="white"/>
</g>
<g style="mix-blend-mode:soft-light" opacity="0.7">
<path d="M110.114 106.158C110.088 106.16 110.063 106.154 110.04 106.141C110.018 106.128 110 106.108 109.99 106.084C109.979 106.06 109.976 106.034 109.981 106.008C109.986 105.982 109.999 105.959 110.018 105.941C115.36 100.781 119.284 95.0985 121.679 89.0507C123.588 84.2532 124.546 79.1228 124.5 73.9498C124.423 65.1201 121.447 58.9738 121.417 58.9124C121.403 58.8824 121.4 58.8478 121.411 58.8162C121.421 58.7845 121.444 58.7584 121.473 58.7436C121.503 58.7287 121.537 58.7264 121.569 58.7371C121.6 58.7478 121.626 58.7706 121.641 58.8005C121.671 58.8632 124.671 65.0513 124.75 73.9361C124.798 79.1428 123.835 84.3068 121.914 89.1359C119.506 95.2198 115.561 100.935 110.191 106.122C110.17 106.143 110.143 106.155 110.114 106.158Z" fill="white"/>
</g>
<g style="mix-blend-mode:soft-light" opacity="0.7">
<path d="M122.128 138.646C122.116 138.647 122.104 138.646 122.093 138.644C106.442 135.311 97.8144 127.687 93.3322 121.883C88.4719 115.587 87.2999 110.001 87.2891 109.945C87.2859 109.929 87.2858 109.912 87.2889 109.896C87.2921 109.879 87.2984 109.864 87.3074 109.85C87.3165 109.836 87.3282 109.824 87.3418 109.815C87.3554 109.806 87.3707 109.8 87.3868 109.796C87.4028 109.793 87.4194 109.793 87.4355 109.796C87.4516 109.799 87.4669 109.806 87.4806 109.815C87.4943 109.824 87.5061 109.836 87.5152 109.85C87.5244 109.863 87.5308 109.879 87.534 109.895C87.5448 109.95 88.7085 115.488 93.5376 121.739C97.9946 127.51 106.575 135.081 122.144 138.399C122.174 138.405 122.2 138.422 122.219 138.446C122.237 138.47 122.247 138.501 122.245 138.531C122.243 138.562 122.23 138.591 122.208 138.612C122.187 138.634 122.158 138.647 122.128 138.649L122.128 138.646Z" fill="white"/>
</g>
<g style="mix-blend-mode:soft-light" opacity="0.7">
<path d="M95.3598 48.2605C95.3356 48.2625 95.3113 48.2573 95.29 48.2455C95.2686 48.2338 95.2511 48.216 95.2396 48.1943C95.2281 48.1727 95.2231 48.1481 95.2253 48.1236C95.2274 48.0992 95.2366 48.0759 95.2517 48.0567C103.118 37.9603 103.397 28.0513 102.246 21.5167C100.999 14.4349 97.8545 9.68533 97.823 9.63701C97.8138 9.62328 97.8074 9.60786 97.8041 9.59163C97.8008 9.5754 97.8007 9.55867 97.8038 9.54241C97.8069 9.52615 97.8131 9.51066 97.8222 9.49684C97.8312 9.48302 97.8428 9.47114 97.8564 9.46187C97.87 9.4526 97.8852 9.44612 97.9013 9.44281C97.9174 9.4395 97.9339 9.43942 97.95 9.44257C97.9661 9.44573 97.9815 9.45205 97.9952 9.46119C98.0089 9.47032 98.0207 9.48209 98.0299 9.49582C98.062 9.54345 101.236 14.3389 102.492 21.4727C103.652 28.058 103.371 38.0433 95.4483 48.2132C95.4375 48.2267 95.424 48.2378 95.4088 48.2459C95.3936 48.254 95.377 48.259 95.3598 48.2605Z" fill="white"/>
</g>
<path d="M119.453 161.317C118.408 162.628 114.99 164.546 113.894 164.675C106.603 165.532 93.0546 168.032 86.6821 163.549C85.5908 162.783 87.631 157.043 87.0274 155.688C87.4457 151.709 87.8348 150.355 86.3932 146.371C82.1353 134.611 57.4204 140.119 62.6253 119.128C66.4372 103.755 77.4414 95.5892 56.7592 84.6901C36.0771 73.7909 9.54293 35.5373 36.1933 22.9671C51.4856 15.7533 60.8978 38.514 77.1255 39.9767C92.5464 41.3665 99.217 52.4525 98.6326 69.523C98.0481 86.5936 107.608 83.199 121.079 86.4732C137.261 90.4058 126.954 112.838 121.321 122.784C116.785 130.796 110.588 154.289 119.453 161.317Z" fill="#6165D7"/>
<g style="mix-blend-mode:soft-light" opacity="0.7">
<g style="mix-blend-mode:soft-light" opacity="0.7">
<g style="mix-blend-mode:soft-light" opacity="0.7">
<path d="M100.966 164.284L100.613 164.25C105.81 109.366 78.1973 57.2644 26.7489 24.8784L26.9359 24.5747C51.3185 39.9201 71.0785 60.5103 84.0779 84.1036C97.7445 108.908 103.584 136.634 100.966 164.284Z" fill="#FCFDFE"/>
</g>
<g style="mix-blend-mode:soft-light" opacity="0.7">
<path d="M127.989 87.3276C116.615 97.0833 104.125 117.447 100.15 132.721L99.8068 132.629C103.8 117.295 116.34 96.8502 127.761 87.0545L127.989 87.3276Z" fill="#FCFDFE"/>
</g>
<g style="mix-blend-mode:soft-light" opacity="0.7">
<path d="M101.864 153.499L101.515 153.564C100.016 145.49 94.534 138.485 85.2199 132.745C78.3912 128.536 69.7003 125.092 59.3885 122.509L59.4734 122.161C69.8201 124.753 78.545 128.211 85.404 132.437C94.8071 138.235 100.342 145.318 101.864 153.499Z" fill="#FCFDFE"/>
</g>
<g style="mix-blend-mode:soft-light" opacity="0.7">
<path d="M82.1042 80.8258L81.7595 80.9094C78.1576 65.8358 83.9626 50.6354 89.4662 40.5384L89.7768 40.7094C84.3051 50.7532 78.5292 65.864 82.1042 80.8258Z" fill="#FCFDFE"/>
</g>
<g style="mix-blend-mode:soft-light" opacity="0.7">
<path d="M60.9866 52.434L60.7806 52.7249C46.7203 42.5434 28.5785 43.0547 19.0169 44.2677L18.9717 43.9125C28.585 42.6928 46.8283 42.1775 60.9866 52.434Z" fill="#FCFDFE"/>
</g>
</g>
</g>
<path d="M196.042 119.951L43.5656 127.711C35.6847 128.111 29.7121 135.024 30.3479 143.15L32.7569 173.937C33.3925 182.06 40.3629 187.898 48.2043 186.993L199.918 169.474C205.305 168.852 209.199 163.005 208.683 156.408L206.726 131.401C206.21 124.804 201.457 119.676 196.042 119.951Z" fill="#97A6B7"/>
<path d="M48.0532 185.062C41.2749 185.83 35.2405 180.758 34.6917 173.744L32.2876 143.02C31.7388 136.006 36.9072 130.003 43.7174 129.642L196.169 121.564C200.859 121.316 204.996 125.768 205.443 131.486L207.404 156.538C207.851 162.257 204.46 167.334 199.792 167.864L48.0532 185.062Z" fill="url(#paint0_linear_33_630)"/>
<path d="M63.7755 140.302L68.6002 148.804C68.6849 148.956 68.8053 149.085 68.951 149.18C69.0966 149.274 69.263 149.331 69.4355 149.346L78.6386 150.043C79.488 150.107 79.9082 151.177 79.3509 151.855L73.3312 159.18C73.2202 159.317 73.1423 159.478 73.1037 159.65C73.0651 159.823 73.0667 160.002 73.1086 160.174L75.4144 169.624C75.629 170.504 74.796 171.276 74.0031 170.93L65.4206 167.183C65.2618 167.114 65.0884 167.087 64.9164 167.103C64.7445 167.12 64.5795 167.18 64.4366 167.278L56.3975 172.708C55.6396 173.22 54.6589 172.615 54.7389 171.685L55.5934 161.731C55.6101 161.551 55.5835 161.369 55.5159 161.201C55.4484 161.033 55.3418 160.883 55.2052 160.766L47.7443 154.383C47.0417 153.782 47.3122 152.617 48.2012 152.413L57.6171 150.244C57.7885 150.203 57.9474 150.121 58.0798 150.004C58.2122 149.887 58.3139 149.739 58.3761 149.573L61.8757 140.423C62.2003 139.579 63.3231 139.504 63.7755 140.302Z" fill="#D8DEE8"/>
<path d="M97.3084 138.091L101.808 146.288C101.884 146.434 101.995 146.558 102.131 146.65C102.266 146.741 102.422 146.798 102.584 146.814L111.129 147.512C111.918 147.577 112.311 148.609 111.796 149.26L106.229 156.294C106.125 156.428 106.053 156.584 106.018 156.75C105.982 156.916 105.985 157.089 106.025 157.254L108.191 166.363C108.393 167.211 107.622 167.952 106.885 167.615L98.9106 163.978C98.7639 163.911 98.6027 163.884 98.4427 163.9C98.2827 163.915 98.1295 163.972 97.9982 164.066L90.5597 169.263C89.8593 169.752 88.9485 169.167 89.0196 168.272L89.7863 158.696C89.8013 158.523 89.7763 158.35 89.7135 158.189C89.6507 158.028 89.5517 157.883 89.4243 157.768L82.4897 151.604C81.8378 151.024 82.0847 149.904 82.9074 149.71L91.6267 147.651C91.7872 147.611 91.9352 147.531 92.0577 147.42C92.1803 147.308 92.2734 147.167 92.3288 147.01L95.5462 138.207C95.8452 137.391 96.8865 137.321 97.3084 138.091Z" fill="url(#paint1_linear_33_630)"/>
<path d="M128.425 135.756L132.636 143.67C132.705 143.809 132.807 143.928 132.933 144.017C133.06 144.105 133.206 144.161 133.359 144.178L141.314 144.872C142.049 144.936 142.418 145.933 141.939 146.56L136.774 153.331C136.677 153.462 136.611 153.613 136.579 153.773C136.547 153.933 136.55 154.099 136.588 154.257L138.63 163.048C138.82 163.867 138.105 164.579 137.417 164.25L129.986 160.717C129.85 160.652 129.7 160.626 129.551 160.64C129.401 160.654 129.259 160.709 129.138 160.798L122.237 165.781C121.588 166.251 120.739 165.683 120.803 164.822L121.487 155.596C121.501 155.431 121.478 155.264 121.419 155.11C121.36 154.955 121.268 154.815 121.149 154.701L114.688 148.741C114.08 148.18 114.307 147.102 115.07 146.917L123.167 144.956C123.319 144.916 123.457 144.838 123.571 144.73C123.685 144.622 123.77 144.487 123.818 144.337L126.788 135.863C127.064 135.076 128.031 135.014 128.425 135.756Z" fill="url(#paint2_linear_33_630)"/>
<path d="M157.418 133.845L161.363 141.495C161.426 141.628 161.52 141.743 161.639 141.829C161.757 141.915 161.894 141.969 162.039 141.987L169.464 142.677C170.149 142.741 170.496 143.703 170.052 144.31L165.248 150.835C165.158 150.963 165.096 151.108 165.067 151.262C165.037 151.416 165.04 151.575 165.076 151.727L167.002 160.221C167.182 161.011 166.515 161.696 165.874 161.379L158.935 157.944C158.809 157.88 158.669 157.854 158.529 157.867C158.389 157.881 158.256 157.933 158.144 158.019L151.726 162.806C151.121 163.257 150.329 162.706 150.387 161.875L151 152.973C151.013 152.814 150.991 152.654 150.936 152.505C150.881 152.356 150.794 152.22 150.682 152.108L144.649 146.344C144.081 145.803 144.29 144.762 145.001 144.585L152.543 142.713C152.685 142.673 152.815 142.597 152.921 142.493C153.027 142.389 153.105 142.26 153.148 142.117L155.894 133.945C156.146 133.186 157.049 133.127 157.418 133.845Z" fill="url(#paint3_linear_33_630)"/>
<path d="M184.479 132.06L188.186 139.465C188.322 139.738 188.559 139.916 188.819 139.942L195.765 140.627C196.407 140.691 196.733 141.624 196.319 142.207L191.842 148.503C191.758 148.627 191.7 148.768 191.673 148.917C191.645 149.065 191.649 149.218 191.683 149.365L193.506 157.583C193.676 158.351 193.054 159.008 192.453 158.699L185.958 155.357C185.841 155.295 185.709 155.269 185.578 155.282C185.447 155.295 185.322 155.345 185.219 155.427L179.23 160.033C178.667 160.468 177.926 159.933 177.977 159.129L178.529 150.533C178.541 150.38 178.521 150.226 178.469 150.082C178.417 149.938 178.336 149.806 178.23 149.696L172.581 144.107C172.05 143.582 172.242 142.578 172.905 142.409L179.942 140.622C180.2 140.556 180.411 140.341 180.505 140.048L183.051 132.156C183.288 131.422 184.132 131.367 184.479 132.06Z" fill="#D8DEE8"/>
<g style="mix-blend-mode:multiply" opacity="0.1">
<g style="mix-blend-mode:multiply" opacity="0.1">
<path d="M175.763 148.895C155.7 145.032 144.621 173.112 121.319 168.958C101.115 165.357 98.8165 143.097 74.0429 129.064C72.3446 128.103 70.6241 127.222 68.8813 126.423L43.5675 127.711C35.6847 128.111 29.7121 135.024 30.3478 143.15L32.7569 173.937C33.3925 182.06 40.3629 187.898 48.2043 186.993L198.886 169.593C190.437 154.975 182.325 150.159 175.763 148.895Z" fill="#97A6B7"/>
</g>
</g>
<path d="M63.7755 140.302L68.6002 148.803C68.6849 148.956 68.8053 149.085 68.951 149.18C69.0966 149.274 69.263 149.331 69.4355 149.345L78.6386 150.043C79.488 150.106 79.9082 151.177 79.3509 151.855L73.3312 159.18C73.2202 159.316 73.1423 159.477 73.1037 159.65C73.0651 159.822 73.0667 160.002 73.1086 160.174L75.4144 169.624C75.629 170.504 74.796 171.276 74.0031 170.93L65.4206 167.183C65.2618 167.114 65.0884 167.087 64.9164 167.103C64.7445 167.12 64.5795 167.18 64.4366 167.278L56.3975 172.708C55.6396 173.219 54.6589 172.615 54.7389 171.684L55.5934 161.731C55.6101 161.551 55.5835 161.369 55.5159 161.2C55.4484 161.032 55.3418 160.883 55.2052 160.765L47.7443 154.383C47.0417 153.782 47.3122 152.617 48.2012 152.413L57.6171 150.243C57.7885 150.203 57.9474 150.121 58.0798 150.004C58.2122 149.887 58.3139 149.739 58.3761 149.573L61.8757 140.423C62.2003 139.579 63.3231 139.504 63.7755 140.302Z" fill="url(#paint4_linear_33_630)"/>
<path d="M143.683 139.883C140.524 140.761 136.925 139.8 134.624 137.19L102.165 100.389C99.2097 97.0394 99.5083 91.9748 102.845 89.0528C106.205 86.1101 112.929 85.8509 115.944 89.2284L149.021 126.336C152.139 129.835 151.746 134.987 148.156 137.817C147.268 138.514 144.725 139.591 143.683 139.883Z" fill="#2213AC"/>
<path d="M192.798 64.9189C196.428 75.4934 192.381 86.3067 183.88 89.0305C175.511 91.7135 165.96 85.5243 162.433 75.2439C158.905 64.9635 162.653 54.2525 170.922 51.2779C179.32 48.2567 189.169 54.3444 192.798 64.9189Z" fill="url(#paint5_linear_33_630)"/>
<g style="mix-blend-mode:multiply" opacity="0.3">
<path d="M191.408 65.2109C194.103 73.0628 192.867 80.475 188.706 81.7479C184.609 83.0014 179.211 77.8149 176.59 70.1811C173.969 62.5473 175.06 55.1842 179.082 53.7139C183.168 52.2209 188.712 57.3583 191.408 65.2109Z" fill="#97A6B7"/>
</g>
<path d="M89.2576 84.2418C89.4091 84.189 89.5642 84.1471 89.7216 84.1163L100.625 80.1777L110.497 108.935L99.8805 112.474C99.6335 112.638 99.3672 112.771 99.0877 112.87C95.3361 114.178 90.0955 108.83 87.3813 100.924C84.6671 93.0181 85.5066 85.5497 89.2576 84.2418Z" fill="#2213AC"/>
<path d="M100.625 80.1778C99.7666 91.1992 103.042 100.741 110.497 108.935L200.995 106.993L174.129 25.9853L100.625 80.1778Z" fill="url(#paint6_linear_33_630)"/>
<path d="M205.306 106.68C216.245 102.866 218.698 81.0867 210.785 58.0355C202.873 34.9843 187.592 19.3898 176.653 23.2042C165.715 27.0187 163.262 48.7975 171.174 71.8487C179.087 94.8999 194.368 110.494 205.306 106.68Z" fill="url(#paint7_linear_33_630)"/>
<path d="M204.822 105.265C207.143 104.455 209.088 102.675 210.6 99.9741C212.138 97.2254 213.162 93.6679 213.64 89.4011C214.65 80.4317 213.138 69.4663 209.382 58.5252C205.627 47.5842 200.092 38.0221 193.798 31.5995C190.809 28.541 187.82 26.3835 184.925 25.1777C182.081 23.9959 179.461 23.807 177.139 24.615C174.816 25.4231 172.873 27.2048 171.365 29.9056C169.826 32.6544 168.802 36.2118 168.324 40.4786C167.902 44.2286 167.921 48.3282 168.36 52.6287C168.971 58.6137 174.68 63.0923 176.865 69.4587C179.189 76.2283 177.91 84.3652 181.355 89.6623C183.48 92.9259 185.769 95.8276 188.166 98.2802C191.16 101.335 194.146 103.494 197.04 104.697C199.88 105.883 202.499 106.072 204.822 105.265Z" fill="url(#paint8_linear_33_630)"/>
<path d="M52.1686 77.7887C52.1534 77.802 52.1409 77.8182 52.132 77.8363L51.9621 77.8565C51.9456 77.8832 51.7648 77.9421 51.7688 77.9927L51.9357 78.0346C51.94 78.0898 52.0224 78.1529 52.0122 78.2309L52.0526 78.2609C51.9496 79.4 51.1537 82.5578 50.3303 86.6295C50.3213 86.6634 50.3272 86.6992 50.319 86.7331C48.4703 95.8681 45.8495 109.605 45.2263 115.919C45.2263 115.919 43.3411 117.04 40.3276 117.757L40.3199 117.758C35.9861 119.06 29.4013 120.461 23.0844 119.325C23.0844 119.325 17.6542 92.5539 19.8621 68.8172C19.8621 68.8172 30.2326 65.3698 41.5912 63.7655C41.6498 63.761 41.724 63.9567 41.7822 63.9483C42.6988 63.8253 43.6368 63.9275 44.5612 63.8556L45.6174 63.7734C46.0908 63.7366 46.9579 63.8358 47.9882 64.178C48.0184 64.1864 48.0689 64.0783 48.0702 64.0944C48.0698 64.0651 48.0714 64.0358 48.075 64.0068C48.075 64.0068 48.2529 64.0701 48.3325 64.0971C48.4503 64.1358 48.5712 64.1743 48.6968 64.2232C48.7227 64.2353 48.7494 64.2456 48.7768 64.254C48.7889 64.2608 48.8037 64.2612 48.8151 64.268C48.8953 64.3019 48.9753 64.3328 49.0665 64.3689C49.0834 64.3737 49.0999 64.3797 49.116 64.3867C49.2145 64.4269 49.314 64.4701 49.4175 64.5137C49.4327 64.5195 49.3562 64.5332 49.3717 64.5428C49.4895 64.5923 49.6416 64.643 49.7637 64.696C49.8857 64.7491 49.959 64.7943 49.9716 64.8559L49.9788 64.7596C50.0358 64.7845 50.097 64.8129 50.1551 64.8416C50.1603 64.843 50.1654 64.8449 50.1702 64.8474C50.8306 65.1613 51.462 65.5325 52.0569 65.9566C52.0569 65.9566 52.0574 65.9643 52.0654 65.9676C52.0735 65.9708 52.0859 65.9914 52.0937 66.0016C54.9841 70.033 56.7096 76.8663 52.1686 77.7887Z" fill="url(#paint9_linear_33_630)"/>
<path d="M79.4252 82.7172C67.8264 82.4008 61.7399 73.9991 57.0275 68.7222C50.8061 61.7555 44.6731 63.5197 44.6731 63.5197L49.7599 79.5682C59.3481 92.4416 71.6073 92.1345 79.694 89.9488C80.2181 87.5538 80.1256 85.0662 79.4252 82.7172Z" fill="#7D97F4"/>
<path d="M96.5061 78.8248L92.4003 80.1665C87.4185 82.0928 83.1436 82.8169 79.4254 82.7203C80.1254 85.0686 80.2178 87.5553 79.694 89.9496C84.8416 88.5585 88.2994 86.4056 88.2994 86.4056C97.6896 82.8701 96.5061 78.8248 96.5061 78.8248Z" fill="#7D97F4"/>
<path d="M106.597 86.037C106.548 85.6208 106.407 85.2208 106.182 84.8667C105.957 84.5125 105.655 84.2132 105.298 83.991L98.2433 79.599C98.2433 79.599 98.3026 78.6077 100.142 78.2538C101.982 77.8999 101.924 75.9094 101.924 75.9094C101.924 75.9094 99.3812 76.5597 95.6346 77.6426C93.4923 78.2617 92.0772 79.7723 91.2636 80.959L92.7597 83.8681C97.1933 86.101 101.886 87.2096 106.771 87.5019L106.597 86.037Z" fill="url(#paint10_linear_33_630)"/>
<path d="M45.6993 63.3507C45.659 63.3539 45.6217 63.3568 45.5852 63.3596C45.5744 63.3605 45.5666 63.3611 45.5551 63.3542L45.6993 63.3507Z" fill="url(#paint11_linear_33_630)"/>
<path d="M48.0027 63.0479L47.9874 63.0567L47.9862 63.0408C47.9882 63.0431 47.9908 63.0449 47.9937 63.0461C47.9965 63.0474 47.9996 63.048 48.0027 63.0479Z" fill="url(#paint12_linear_33_630)"/>
<path d="M51.1765 191.045C51.1765 191.045 50.8409 194.457 50.8072 197.811C50.805 198.122 50.8662 198.43 50.9869 198.717C51.1076 199.003 51.2855 199.263 51.5097 199.479C51.7339 199.695 51.9998 199.864 52.2914 199.976C52.583 200.087 52.8943 200.138 53.2065 200.126C57.6778 199.964 67.2389 199.581 70.6479 199.163C70.7669 199.148 70.8806 199.105 70.9795 199.037C71.0784 198.97 71.1596 198.88 71.2164 198.774C71.2732 198.669 71.3039 198.552 71.306 198.433C71.308 198.313 71.2814 198.195 71.2283 198.088C71.0376 197.702 70.705 197.404 70.2994 197.255L53.9916 191.277L51.1765 191.045Z" fill="url(#paint13_linear_33_630)"/>
<path d="M50.533 189.105L51.3265 193.092C51.3265 193.092 54.1838 194.156 55.956 192.57L54.4644 188.173L50.533 189.105Z" fill="url(#paint14_linear_33_630)"/>
<path d="M45.0052 113.406C44.8796 114.473 47.9746 165.946 55.2873 188.552C55.3465 188.73 55.3395 188.923 55.2676 189.096C55.1957 189.27 55.0637 189.412 54.8955 189.497C54.0743 189.907 52.4548 190.536 50.4707 190.756C50.1718 190.789 49.8704 190.722 49.6139 190.566C49.3573 190.411 49.1601 190.174 49.0533 189.894C47.0599 184.672 37.4152 158.483 34.4377 132.981C31.1117 104.484 34.362 132.008 34.362 132.008L33.6339 114.289L45.0052 113.406Z" fill="url(#paint15_linear_33_630)"/>
<path d="M33.1991 194.211C33.1991 194.211 32.3807 195.984 31.8117 200.572C31.7866 200.768 31.8031 200.966 31.86 201.154C31.917 201.343 32.0131 201.517 32.1422 201.666C32.2712 201.815 32.4303 201.936 32.6092 202.019C32.788 202.103 32.9826 202.149 33.1803 202.153C34.6626 202.183 36.9429 202.191 38.756 202.038C38.9534 202.022 39.1451 201.964 39.3186 201.869C39.4922 201.774 39.6437 201.644 39.7633 201.487C39.8829 201.33 39.9678 201.149 40.0124 200.957C40.0571 200.765 40.0606 200.566 40.0226 200.373C39.6932 198.741 38.8567 196.086 36.7576 194.129L33.1991 194.211Z" fill="url(#paint16_linear_33_630)"/>
<path d="M31.9612 189.099L33.5559 195.099C33.5559 195.099 34.7284 195.833 36.8748 195.067L35.83 188.559L31.9612 189.099Z" fill="url(#paint17_linear_33_630)"/>
<path d="M23.2784 116.684C20.8748 144.155 29.4746 183.638 31.9351 191.305C32.0079 191.534 32.1475 191.738 32.3362 191.889C32.5249 192.04 32.7543 192.132 32.9955 192.153C33.8334 192.225 35.2036 192.231 36.5157 191.738C36.7364 191.655 36.9253 191.505 37.0557 191.309C37.186 191.113 37.2512 190.882 37.2421 190.647C36.9997 184.313 33.5347 145.578 36.5504 129.929C36.7033 129.137 37.127 128.422 37.7495 127.906L45.4646 121.493L45.3638 112.105L23.2784 116.684Z" fill="url(#paint18_linear_33_630)"/>
<path d="M26.0687 81.444L19.8645 68.8084C19.8645 68.8084 7.89175 78.3383 6.65647 89.3363C9.06018 89.326 13.4519 89.6058 17.871 91.4128C18.4071 86.2216 26.0687 81.444 26.0687 81.444Z" fill="#91B3FA"/>
<path d="M33.4927 53.1911L30.1534 65.9178C30.1262 66.0196 30.1359 66.1278 30.1809 66.2232C30.2259 66.3185 30.3034 66.395 30.3996 66.439C31.6232 66.9931 35.9965 68.5311 40.8417 64.9192C41.0918 64.7348 41.2981 64.4979 41.4459 64.2253C41.5937 63.9527 41.6795 63.651 41.697 63.3418L42.2563 52.5083L33.4927 53.1911Z" fill="url(#paint19_linear_33_630)"/>
<path d="M26.3394 66.9013L31.1384 62.1588L40.2768 80.2352L40.4473 154.878L22.9905 156.761C22.9293 156.767 22.8675 156.762 22.8087 156.744C22.7499 156.726 22.6954 156.696 22.6487 156.656C22.602 156.616 22.564 156.567 22.537 156.512C22.5101 156.457 22.4948 156.397 22.4921 156.336L19.3813 84.7564C19.3813 84.7564 18.2481 69.3267 19.8646 68.8102C21.4812 68.2938 26.3394 66.9013 26.3394 66.9013Z" fill="#91B3FA"/>
<path d="M51.7932 77.8695L51.771 77.9925L51.9379 78.0343L52.0145 78.2306L51.6586 78.2915L51.0126 93.1649L51.0132 93.1718L50.0827 155.092C50.0777 155.218 50.2402 155.311 50.1505 155.396C50.0609 155.48 50.0454 155.51 49.9261 155.502L40.3998 154.877L40.3036 117.758L40.3156 117.703L40.1271 79.2699L41.4508 63.7262L41.4503 63.7193L41.729 61.3213L44.4865 63.3456L44.5444 63.3411L45.286 63.3235L45.5956 63.3141C46.0748 63.4019 48.0598 63.9716 48.0598 63.9716C48.0598 63.9716 48.7569 64.2184 49.0911 64.3468C49.1047 64.3521 49.1178 64.3583 49.1306 64.3653C49.2299 64.4055 49.3248 64.4498 49.4275 64.4928C49.4427 64.4993 49.3577 64.5129 49.3732 64.5233C49.5798 64.6168 49.7712 64.7239 49.7811 64.8513L49.7817 64.8582L51.7582 77.7981L51.7617 77.8426L51.7932 77.8695Z" fill="#7D97F4"/>
<path d="M43.1855 79.8564L43.3268 81.6728L50.043 80.7441L49.8859 78.7258L43.1855 79.8564Z" fill="url(#paint20_linear_33_630)"/>
<path d="M40.1963 84.5648C40.1662 84.5671 40.136 84.562 40.1083 84.55L33.9586 81.8532C33.9322 81.8418 33.9089 81.8244 33.8906 81.8023C33.8723 81.7803 33.8595 81.7542 33.8533 81.7263L32.622 76.3692L30.4388 76.1531C30.4051 76.1499 30.3729 76.1375 30.3459 76.1173C30.3188 76.0971 30.298 76.0697 30.2856 76.0384L27.434 68.8487C27.4161 68.8036 27.417 68.7531 27.4364 68.7085C27.4559 68.664 27.4923 68.6289 27.5377 68.611C27.5831 68.5931 27.6338 68.594 27.6786 68.6133C27.7233 68.6326 27.7586 68.6688 27.7765 68.714L30.5865 75.7988L32.7897 76.0134C32.8282 76.0171 32.8646 76.0328 32.8935 76.0583C32.9225 76.0838 32.9427 76.1177 32.9513 76.1552L34.191 81.551L40.2566 84.2127C40.2939 84.2293 40.3245 84.2578 40.3437 84.2937C40.3629 84.3295 40.3696 84.3708 40.3627 84.4108C40.3557 84.4509 40.3356 84.4876 40.3055 84.515C40.2753 84.5425 40.2369 84.5592 40.1962 84.5625L40.1963 84.5648Z" fill="url(#paint21_linear_33_630)"/>
<path d="M41.4607 82.6409C41.4366 82.6426 41.4125 82.6381 41.3907 82.6279C41.3743 82.6202 41.3597 82.6093 41.3475 82.596C41.3354 82.5827 41.3261 82.5671 41.32 82.5501C41.3139 82.5332 41.3112 82.5152 41.3122 82.4972C41.3131 82.4792 41.3175 82.4616 41.3253 82.4453L44.0031 76.798L43.2542 73.782C43.2472 73.7542 43.2492 73.7249 43.26 73.6982C43.2707 73.6716 43.2896 73.6491 43.314 73.6337L45.7038 72.1191L44.3868 63.3794C44.3814 63.3434 44.3905 63.3067 44.4122 63.2774C44.4339 63.248 44.4664 63.2285 44.5026 63.223C44.5388 63.2175 44.5757 63.2266 44.6052 63.2481C44.6346 63.2697 44.6543 63.3021 44.6598 63.3381L45.9898 72.1663C45.994 72.1927 45.9904 72.2197 45.9793 72.244C45.9682 72.2684 45.9502 72.2889 45.9275 72.3032L43.5458 73.8126L44.2832 76.7793C44.2906 76.8099 44.287 76.842 44.2732 76.8704L41.5748 82.5618C41.5644 82.5838 41.5484 82.6027 41.5284 82.6166C41.5084 82.6304 41.485 82.6389 41.4607 82.6409Z" fill="url(#paint22_linear_33_630)"/>
<path d="M38.0535 92.4721C38.0535 92.4721 24.4886 101.557 19.1682 95.1153C18.0635 93.7776 17.7151 92.3896 17.8575 91.0297C13.4376 89.2228 9.04429 88.9432 6.64295 88.954C6.27037 92.2696 6.87229 95.7185 9.07377 99.08C18.6489 113.698 40.2026 95.8084 40.2026 95.8084L38.0535 92.4721Z" fill="#91B3FA"/>
<path d="M37.1348 102.703L42.7837 75.1826C42.8148 75.0301 42.8905 74.8901 43.0014 74.7804C43.1123 74.6706 43.2533 74.596 43.4067 74.5659C44.7971 74.2932 48.8269 73.5195 53.4906 72.759C59.1072 71.8432 65.6436 70.9462 69.5923 70.9655C69.7219 70.9657 69.8495 70.9974 69.9639 71.0579C70.0783 71.1185 70.176 71.206 70.2485 71.3129C70.321 71.4197 70.3661 71.5426 70.3799 71.6709C70.3936 71.7992 70.3756 71.9289 70.3274 72.0486C68.4458 76.7153 60.6889 95.7066 56.5598 102.051C56.4927 102.155 56.4023 102.242 56.2956 102.304C56.189 102.367 56.0692 102.404 55.9456 102.413L37.969 103.645C37.8472 103.653 37.7251 103.634 37.6122 103.588C37.4993 103.542 37.3986 103.47 37.3179 103.379C37.2372 103.288 37.1787 103.18 37.1469 103.062C37.1152 102.945 37.111 102.822 37.1348 102.703Z" fill="url(#paint23_linear_33_630)"/>
<path d="M54.1116 70.3625L59.6542 68.9947C59.7217 68.9779 59.7924 68.9788 59.8595 68.9973C59.9265 69.0157 59.9876 69.0511 60.0369 69.1001C60.0861 69.149 60.1218 69.2097 60.1404 69.2765C60.1591 69.3432 60.1601 69.4136 60.1434 69.4808L59.718 71.2008C59.6997 71.2741 59.6612 71.3408 59.6067 71.3933C59.5522 71.4459 59.4841 71.4822 59.41 71.4981L54.0629 72.6368C53.9989 72.6504 53.9326 72.6483 53.8696 72.6307C53.8067 72.6131 53.7489 72.5806 53.7014 72.536C53.6538 72.4913 53.6179 72.4359 53.5966 72.3743C53.5753 72.3128 53.5694 72.247 53.5792 72.1827L53.8092 70.6925C53.8213 70.614 53.8564 70.5407 53.9102 70.482C53.9641 70.4232 54.0341 70.3817 54.1116 70.3625Z" fill="url(#paint24_linear_33_630)"/>
<path d="M50.2764 75.4204L50.5523 72.9864C50.5658 72.8676 50.6174 72.7563 50.6995 72.6689C50.7816 72.5816 50.8897 72.5229 51.0079 72.5016L62.2583 70.4734C62.3462 70.4576 62.4366 70.4629 62.5219 70.489C62.6073 70.5151 62.6851 70.5611 62.7488 70.6233C62.8126 70.6855 62.8605 70.7619 62.8885 70.8463C62.9164 70.9307 62.9237 71.0205 62.9096 71.1083L62.4205 74.1527C62.4017 74.2713 62.3446 74.3806 62.2579 74.4642C62.1713 74.5478 62.0597 74.6012 61.94 74.6162L50.902 76.0342C50.818 76.0449 50.7327 76.0365 50.6525 76.0096C50.5723 75.9828 50.4993 75.9381 50.439 75.8789C50.3788 75.8198 50.3328 75.7478 50.3046 75.6684C50.2764 75.589 50.2668 75.5042 50.2764 75.4204Z" fill="url(#paint25_linear_33_630)"/>
<path d="M38.4998 96.0535C38.4998 96.0535 37.0769 91.7227 37.3906 90.1226C37.7043 88.5224 38.3902 86.4424 41.2329 86.6713C44.0756 86.9002 47.4841 87.8208 47.4841 87.8208C47.4841 87.8208 47.4756 89.8743 45.2887 89.3813L46.6926 90.2981C46.6926 90.2981 46.6301 91.9466 44.7581 91.2145L46.0969 92.4706C46.0969 92.4706 45.4265 93.8731 44.0326 93.1154C42.6388 92.3576 42.3051 96.2924 38.4998 96.0535Z" fill="url(#paint26_linear_33_630)"/>
<path d="M25.0079 97.4745C23.6895 97.5771 22.4639 97.4771 21.5042 97.0453C21.4814 97.036 21.4607 97.0221 21.4434 97.0046C21.4261 96.9872 21.4125 96.9664 21.4034 96.9435C21.3943 96.9207 21.3899 96.8963 21.3905 96.8717C21.3911 96.8472 21.3967 96.823 21.4068 96.8006C21.417 96.7782 21.4316 96.7581 21.4498 96.7414C21.4679 96.7247 21.4892 96.7119 21.5124 96.7036C21.5357 96.6953 21.5603 96.6917 21.585 96.6931C21.6096 96.6945 21.6337 96.7008 21.6559 96.7116C25.5944 98.4834 34.6542 94.2201 34.7455 94.1767C34.7702 94.1655 36.5347 93.3974 37.0851 92.0877C37.1055 92.0453 37.1415 92.0123 37.1856 91.9955C37.2298 91.9787 37.2787 91.9795 37.3222 91.9976C37.3658 92.0158 37.4007 92.0499 37.4197 92.0929C37.4386 92.1359 37.4403 92.1846 37.4242 92.2288C36.8163 93.6766 34.9751 94.4769 34.897 94.51C34.6105 94.645 29.3115 97.1396 25.0079 97.4745Z" fill="url(#paint27_linear_33_630)"/>
<path d="M20.4292 104.831C20.3306 104.839 20.2496 104.845 20.238 104.746C20.2264 104.646 20.3037 104.593 20.4034 104.578C31.1506 103.371 36.9032 98.0027 36.9602 97.9481C36.9784 97.932 36.9995 97.9197 37.0224 97.9117C37.0454 97.9038 37.0697 97.9004 37.0939 97.9019C37.1182 97.9033 37.1419 97.9094 37.1637 97.92C37.1856 97.9305 37.2051 97.9452 37.2212 97.9633C37.2912 98.0351 37.2831 98.0805 37.2102 98.1502C37.1524 98.2057 31.3337 103.979 20.4328 104.828L20.4292 104.831Z" fill="url(#paint28_linear_33_630)"/>
<path d="M43.9452 40.56C43.9452 40.56 46.6071 47.9142 46.5752 51.6812C46.5433 55.4481 47.194 57.9382 42.7836 58.4158C38.3732 58.8933 34.8389 56.4956 33.0929 52.6277C33.0929 52.6277 30.35 46.6648 31.2037 44.3494C32.0575 42.0341 43.9452 40.56 43.9452 40.56Z" fill="url(#paint29_linear_33_630)"/>
<path d="M26.3584 42.3486C27.2544 41.6922 27.8829 41.844 28.2644 42.1123C28.3119 42.1461 28.3684 42.1652 28.4268 42.1671C28.4852 42.169 28.5429 42.1537 28.5926 42.123C28.5932 42.0118 28.7101 34.2739 39.3368 34.8065C39.8768 34.8335 40.4127 34.7 40.8764 34.4229C41.3401 34.1458 41.7106 33.7377 41.9406 33.2504C43.0152 30.9727 45.1249 27.5829 47.1512 30.5767C50.033 34.8357 51.2397 40.6239 44.1535 42.3905C43.7343 42.4957 43.3101 42.5859 42.8835 42.6654C39.9764 43.6235 36.6182 44.1157 35.3913 44.5269C33.342 45.2137 35.3154 49.9302 35.3154 49.9302L34.7643 49.8958L33.5888 49.8206C33.4181 49.8099 33.2686 50.0122 33.2679 50.1829L33.2554 53.5106C33.2556 53.5819 33.2314 53.6513 33.1869 53.7072C33.1424 53.7631 33.08 53.8023 33.0102 53.8184C32.4835 53.9173 31.1009 53.9724 28.861 52.5895C26.6716 51.2374 27.6041 50.3921 28.2174 50.0494C28.2566 50.0259 28.2898 49.9935 28.3142 49.955C28.3386 49.9164 28.3536 49.8727 28.358 49.8273C28.3624 49.7819 28.3561 49.7361 28.3395 49.6937C28.3229 49.6512 28.2965 49.6132 28.2625 49.5827C25.1951 46.7363 24.8001 43.4936 26.3584 42.3486Z" fill="url(#paint30_linear_33_630)"/>
<path d="M34.8463 50.7303C34.8463 50.7303 33.9511 46.0836 31.809 47.2331C29.6669 48.3826 32.5435 52.4257 34.1867 52.6993L34.8463 50.7303Z" fill="url(#paint31_linear_33_630)"/>
<path d="M45.9078 40.8319C45.8791 40.8301 45.8517 40.8199 45.8287 40.8027C45.8058 40.7854 45.7885 40.7619 45.7789 40.735C45.7693 40.708 45.7678 40.6789 45.7747 40.6511C45.7815 40.6234 45.7964 40.5982 45.8175 40.5788C47.2375 39.2701 47.9607 37.8287 47.9662 36.295C47.9796 33.6266 45.7999 31.5519 45.7781 31.5312C45.7522 31.5041 45.7377 31.4682 45.7377 31.4307C45.7376 31.3933 45.7519 31.3573 45.7777 31.33C45.8035 31.3028 45.8389 31.2864 45.8764 31.2843C45.914 31.2822 45.9509 31.2945 45.9796 31.3187C46.0733 31.4064 48.272 33.4973 48.26 36.2938C48.2536 37.9156 47.4955 39.4268 46.0156 40.7919C46.0013 40.8054 45.9843 40.816 45.9658 40.8229C45.9473 40.8298 45.9275 40.8328 45.9078 40.8319Z" fill="#91B3FA"/>
<defs>
<linearGradient id="paint0_linear_33_630" x1="78.6414" y1="225.156" x2="146.824" y2="103.032" gradientUnits="userSpaceOnUse">
<stop stop-color="#EBEFF2"/>
<stop offset="1" stop-color="white"/>
</linearGradient>
<linearGradient id="paint1_linear_33_630" x1="49102.4" y1="75357.6" x2="63711.4" y2="106623" gradientUnits="userSpaceOnUse">
<stop stop-color="#FFC444"/>
<stop offset="1" stop-color="#F36F56"/>
</linearGradient>
<linearGradient id="paint2_linear_33_630" x1="57545.3" y1="67152.4" x2="71922.9" y2="96984.3" gradientUnits="userSpaceOnUse">
<stop stop-color="#FFC444"/>
<stop offset="1" stop-color="#F36F56"/>
</linearGradient>
<linearGradient id="paint3_linear_33_630" x1="63920" y1="59961" x2="78074.1" y2="88453.7" gradientUnits="userSpaceOnUse">
<stop stop-color="#FFC444"/>
<stop offset="1" stop-color="#F36F56"/>
</linearGradient>
<linearGradient id="paint4_linear_33_630" x1="27075.5" y1="79821.8" x2="43313.9" y2="78551.2" gradientUnits="userSpaceOnUse">
<stop stop-color="#FFC444"/>
<stop offset="1" stop-color="#F36F56"/>
</linearGradient>
<linearGradient id="paint5_linear_33_630" x1="37723.9" y1="36199" x2="53958.8" y2="34928.7" gradientUnits="userSpaceOnUse">
<stop stop-color="#311944"/>
<stop offset="1" stop-color="#893976"/>
</linearGradient>
<linearGradient id="paint6_linear_33_630" x1="162.53" y1="88.8356" x2="135.481" y2="2.09545" gradientUnits="userSpaceOnUse">
<stop stop-color="#E38DDD"/>
<stop offset="1" stop-color="#9571F6"/>
</linearGradient>
<linearGradient id="paint7_linear_33_630" x1="69089.1" y1="67648.7" x2="94972.2" y2="58764.3" gradientUnits="userSpaceOnUse">
<stop stop-color="#311944"/>
<stop offset="1" stop-color="#893976"/>
</linearGradient>
<linearGradient id="paint8_linear_33_630" x1="-14017.6" y1="69381" x2="81848.1" y2="66357.4" gradientUnits="userSpaceOnUse">
<stop stop-color="#311944"/>
<stop offset="1" stop-color="#893976"/>
</linearGradient>
<linearGradient id="paint9_linear_33_630" x1="-140257" y1="110123" x2="-122966" y2="108777" gradientUnits="userSpaceOnUse">
<stop stop-color="#09005D"/>
<stop offset="1" stop-color="#1A0F91"/>
</linearGradient>
<linearGradient id="paint10_linear_33_630" x1="32.6435" y1="-4.49794" x2="83.3125" y2="62.1754" gradientUnits="userSpaceOnUse">
<stop stop-color="#FEBBBA"/>
<stop offset="1" stop-color="#FDACA9"/>
</linearGradient>
<linearGradient id="paint11_linear_33_630" x1="11.122" y1="77.2407" x2="11.389" y2="77.22" gradientUnits="userSpaceOnUse">
<stop stop-color="#09005D"/>
<stop offset="1" stop-color="#1A0F91"/>
</linearGradient>
<linearGradient id="paint12_linear_33_630" x1="108.077" y1="81.4353" x2="108.081" y2="81.4404" gradientUnits="userSpaceOnUse">
<stop stop-color="#53EAC9"/>
<stop offset="1" stop-color="#45AED8"/>
</linearGradient>
<linearGradient id="paint13_linear_33_630" x1="-68834.7" y1="34977.9" x2="-73163.4" y2="47525.7" gradientUnits="userSpaceOnUse">
<stop stop-color="#09005D"/>
<stop offset="1" stop-color="#1A0F91"/>
</linearGradient>
<linearGradient id="paint14_linear_33_630" x1="-17490.6" y1="17695.8" x2="-17150.3" y2="17669.3" gradientUnits="userSpaceOnUse">
<stop stop-color="#FEBBBA"/>
<stop offset="1" stop-color="#FF928E"/>
</linearGradient>
<linearGradient id="paint15_linear_33_630" x1="-45352" y1="168781" x2="-72806.9" y2="179313" gradientUnits="userSpaceOnUse">
<stop stop-color="#09005D"/>
<stop offset="1" stop-color="#1A0F91"/>
</linearGradient>
<linearGradient id="paint16_linear_33_630" x1="-27907.6" y1="26230.6" x2="-33527.9" y2="33391.9" gradientUnits="userSpaceOnUse">
<stop stop-color="#09005D"/>
<stop offset="1" stop-color="#1A0F91"/>
</linearGradient>
<linearGradient id="paint17_linear_33_630" x1="-15510.8" y1="22501.2" x2="-15257.1" y2="22481.5" gradientUnits="userSpaceOnUse">
<stop stop-color="#FEBBBA"/>
<stop offset="1" stop-color="#FF928E"/>
</linearGradient>
<linearGradient id="paint18_linear_33_630" x1="-72965.8" y1="167347" x2="-108836" y2="185572" gradientUnits="userSpaceOnUse">
<stop stop-color="#09005D"/>
<stop offset="1" stop-color="#1A0F91"/>
</linearGradient>
<linearGradient id="paint19_linear_33_630" x1="-51164.8" y1="25573.7" x2="-50116.1" y2="24951.2" gradientUnits="userSpaceOnUse">
<stop stop-color="#FEBBBA"/>
<stop offset="0.90625" stop-color="#FFB3B0"/>
</linearGradient>
<linearGradient id="paint20_linear_33_630" x1="42.5483" y1="83.7191" x2="64.9762" y2="64.688" gradientUnits="userSpaceOnUse">
<stop stop-color="#9CFFFB"/>
<stop offset="1" stop-color="#9BFFFA"/>
</linearGradient>
<linearGradient id="paint21_linear_33_630" x1="-42824.1" y1="31015.8" x2="-42277.5" y2="30688.2" gradientUnits="userSpaceOnUse">
<stop stop-color="#DAE3FE"/>
<stop offset="1" stop-color="#E9EFFD"/>
</linearGradient>
<linearGradient id="paint22_linear_33_630" x1="-17724.6" y1="31477.3" x2="-17339.4" y2="31447.4" gradientUnits="userSpaceOnUse">
<stop stop-color="#DAE3FE"/>
<stop offset="1" stop-color="#E9EFFD"/>
</linearGradient>
<linearGradient id="paint23_linear_33_630" x1="-123461" y1="28879.8" x2="-103984" y2="52988.8" gradientUnits="userSpaceOnUse">
<stop stop-color="#4F52FF"/>
<stop offset="1" stop-color="#4042E2"/>
</linearGradient>
<linearGradient id="paint24_linear_33_630" x1="-16948" y1="5086.61" x2="-16906.3" y2="5622.64" gradientUnits="userSpaceOnUse">
<stop stop-color="#09005D"/>
<stop offset="1" stop-color="#1A0F91"/>
</linearGradient>
<linearGradient id="paint25_linear_33_630" x1="-32997.1" y1="6527.8" x2="-32845.4" y2="8259.43" gradientUnits="userSpaceOnUse">
<stop stop-color="#09005D"/>
<stop offset="1" stop-color="#1A0F91"/>
</linearGradient>
<linearGradient id="paint26_linear_33_630" x1="-37740.2" y1="19748" x2="-36359.9" y2="19640.6" gradientUnits="userSpaceOnUse">
<stop stop-color="#FEBBBA"/>
<stop offset="1" stop-color="#FF9D9A"/>
</linearGradient>
<linearGradient id="paint27_linear_33_630" x1="-64849.1" y1="13474.5" x2="-61397.6" y2="13205.9" gradientUnits="userSpaceOnUse">
<stop stop-color="#DAE3FE"/>
<stop offset="1" stop-color="#E9EFFD"/>
</linearGradient>
<linearGradient id="paint28_linear_33_630" x1="-69643.1" y1="16335.6" x2="-65694.8" y2="16028.4" gradientUnits="userSpaceOnUse">
<stop stop-color="#DAE3FE"/>
<stop offset="1" stop-color="#E9EFFD"/>
</linearGradient>
<linearGradient id="paint29_linear_33_630" x1="-117758" y1="24634.7" x2="-121800" y2="26914.2" gradientUnits="userSpaceOnUse">
<stop stop-color="#FEBBBA"/>
<stop offset="1" stop-color="#FF928E"/>
</linearGradient>
<linearGradient id="paint30_linear_33_630" x1="-114141" y1="29111.6" x2="-124751" y2="41639.9" gradientUnits="userSpaceOnUse">
<stop stop-color="#09005D"/>
<stop offset="1" stop-color="#1A0F91"/>
</linearGradient>
<linearGradient id="paint31_linear_33_630" x1="-27967.4" y1="8451.94" x2="-29080.8" y2="8903.28" gradientUnits="userSpaceOnUse">
<stop stop-color="#FEBBBA"/>
<stop offset="1" stop-color="#FF928E"/>
</linearGradient>
</defs>
</svg>
