<svg width="252" height="252" viewBox="0 0 252 252" fill="none" xmlns="http://www.w3.org/2000/svg">
<g clip-path="url(#clip0_33_486)">
<path d="M160.106 35.4542L40.4532 31.3117C37.2744 31.2017 34.1755 32.3113 31.7968 34.4112C29.4181 36.5111 27.9412 39.4409 27.6714 42.5953L12.9293 214.966C12.8253 216.182 12.9681 217.407 13.3492 218.567C13.7302 219.728 14.3418 220.8 15.1475 221.721C15.9532 222.642 16.9365 223.392 18.0391 223.927C19.1417 224.462 20.3409 224.772 21.5656 224.836L158.621 232.064C159.773 232.125 160.925 231.956 162.011 231.569C163.096 231.181 164.093 230.582 164.943 229.807C165.793 229.031 166.479 228.095 166.961 227.052C167.443 226.01 167.712 224.882 167.751 223.735L173.699 49.9466C173.762 48.1072 173.46 46.2732 172.812 44.5493C172.163 42.8254 171.179 41.2454 169.916 39.8996C168.654 38.5537 167.138 37.4685 165.455 36.7057C163.771 35.943 161.954 35.5177 160.106 35.4542Z" fill="#2213AC"/>
<path d="M159.446 38.3994C142.943 37.9534 86.9475 40.5582 40.6128 35.3998C40.1115 35.3431 39.6039 35.3869 39.12 35.5284C38.6361 35.67 38.1855 35.9065 37.795 36.224C37.4044 36.5416 37.0816 36.9337 36.8457 37.3774C36.6097 37.8211 36.4654 38.3074 36.4211 38.8076L21.2255 211.932C21.1252 213.072 21.4823 214.206 22.2187 215.086C22.9552 215.965 24.0112 216.519 25.1561 216.627C44.6555 218.454 124.969 225.689 153.774 223.69C154.62 223.631 155.414 223.263 156.004 222.657C156.594 222.05 156.939 221.249 156.972 220.405L163.943 42.6172C163.967 42.0347 163.865 41.4539 163.643 40.914C163.422 40.3741 163.087 39.8878 162.661 39.4879C162.234 39.0879 161.727 38.7838 161.172 38.596C160.617 38.4082 160.029 38.3412 159.446 38.3994Z" fill="url(#paint0_linear_33_486)"/>
<path d="M92.8387 26.5343L106.456 25.8048L108.021 13.4488C108.175 12.2429 107.906 11.0205 107.257 9.98997C106.608 8.95939 105.62 8.18436 104.462 7.79691C101.843 6.92824 98.0866 6.73945 93.6624 9.58213C84.9849 15.1588 92.8387 26.5343 92.8387 26.5343ZM96.0209 16.302C96.0445 15.6358 96.2659 14.9917 96.6572 14.451C97.0486 13.9103 97.5923 13.4974 98.2195 13.2644C98.8468 13.0314 99.5296 12.9888 100.181 13.1419C100.833 13.2951 101.425 13.6372 101.882 14.1249C102.339 14.6126 102.64 15.2241 102.748 15.8821C102.856 16.5401 102.766 17.215 102.488 17.8216C102.211 18.4281 101.759 18.9391 101.19 19.2898C100.621 19.6406 99.9595 19.8154 99.2902 19.7922C98.8454 19.7768 98.4079 19.6743 98.0028 19.4905C97.5977 19.3067 97.2329 19.0452 96.9293 18.7211C96.6257 18.397 96.3892 18.0165 96.2333 17.6014C96.0774 17.1863 96.0053 16.7448 96.0209 16.302Z" fill="url(#paint1_linear_33_486)"/>
<path d="M105.205 20.8821C105.028 20.8594 104.868 20.768 104.758 20.6278C104.649 20.4876 104.6 20.3101 104.622 20.134L104.871 18.1657C104.904 17.9994 105 17.8519 105.138 17.7529C105.276 17.6538 105.447 17.6106 105.616 17.6318C105.785 17.6531 105.94 17.7373 106.05 17.8674C106.159 17.9976 106.215 18.1641 106.206 18.3335L105.957 20.3019C105.934 20.478 105.842 20.638 105.702 20.7467C105.561 20.8555 105.382 20.9042 105.205 20.8821ZM105.693 17.0262C105.516 17.0033 105.356 16.9118 105.247 16.7717C105.137 16.6315 105.088 16.4541 105.11 16.2782L105.299 14.784C105.416 13.8639 105.21 12.9315 104.715 12.1451C104.221 11.3586 103.468 10.7666 102.585 10.4694C101.145 9.99021 99.6088 9.87439 98.1134 10.1323C97.9426 10.1507 97.7712 10.1035 97.6341 10.0003C97.4969 9.89718 97.4045 9.74583 97.3757 9.57722C97.3468 9.4086 97.3837 9.23542 97.4788 9.09305C97.5739 8.95067 97.72 8.84984 97.8874 8.81114C99.6004 8.5163 101.36 8.64951 103.01 9.19881C104.188 9.59441 105.192 10.3834 105.853 11.4318C106.513 12.4802 106.789 13.7236 106.634 14.951L106.445 16.4452C106.429 16.5711 106.377 16.69 106.296 16.788C106.215 16.8859 106.108 16.959 105.987 16.9986C105.892 17.029 105.792 17.0384 105.693 17.0262Z" fill="#BDD0FB"/>
<path d="M124.711 34.457L124.925 28.2251C124.942 27.7148 124.856 27.2061 124.672 26.7294C124.488 26.2526 124.209 25.8176 123.852 25.4503C123.496 25.0829 123.069 24.7906 122.596 24.591C122.124 24.3913 121.616 24.2883 121.103 24.288L77.8861 24.265C76.9605 24.2647 76.0682 24.608 75.3838 25.2278C74.6993 25.8476 74.2719 26.6994 74.185 27.6167L73.6194 33.5923L124.711 34.457Z" fill="url(#paint2_linear_33_486)"/>
<path d="M110.738 26.283L108.882 26.2227C108.796 26.2185 108.714 26.1806 108.655 26.1171C108.596 26.0536 108.565 25.9696 108.567 25.8832C108.57 25.7968 108.607 25.7149 108.669 25.6552C108.732 25.5954 108.816 25.5626 108.902 25.5637L110.758 25.6239C110.845 25.6277 110.927 25.6654 110.986 25.7289C111.045 25.7924 111.077 25.8765 111.075 25.9631C111.072 26.0497 111.035 26.1318 110.973 26.1917C110.91 26.2515 110.826 26.2844 110.739 26.283L110.738 26.283Z" fill="#BDD0FB"/>
<path d="M122.662 32.7295C122.793 32.6867 122.908 32.6049 122.991 32.4951C123.073 32.3854 123.12 32.2531 123.125 32.1159L123.211 29.5979C123.247 28.5703 122.871 27.5703 122.167 26.8177C121.462 26.0651 120.487 25.6214 119.454 25.5842L112.624 25.348C112.445 25.3419 112.271 25.4068 112.141 25.5284C112.01 25.65 111.933 25.8184 111.927 25.9965C111.921 26.1746 111.986 26.3478 112.108 26.478C112.231 26.6083 112.4 26.6849 112.579 26.691L119.404 26.9267C120.08 26.951 120.718 27.2411 121.18 27.7332C121.641 28.2254 121.888 28.8795 121.865 29.5521L121.779 32.0701C121.774 32.2475 121.839 32.42 121.961 32.5498C122.082 32.6796 122.251 32.7561 122.429 32.7627C122.508 32.7651 122.587 32.7539 122.662 32.7295Z" fill="#BDD0FB"/>
<path d="M138.315 32.6442L62.83 30.0294C61.5153 29.9839 60.227 30.4019 59.1922 31.2097C58.1575 32.0176 57.4428 33.1633 57.1742 34.445L57.0976 34.8102C56.9551 35.4911 56.9638 36.1949 57.1233 36.8723C57.2828 37.5497 57.589 38.1843 58.0207 38.7317C58.4523 39.2791 58.9989 39.726 59.6222 40.0412C60.2454 40.3564 60.9302 40.5322 61.6287 40.5563L139.072 43.2377C139.493 43.2521 139.913 43.1812 140.307 43.0293C140.7 42.8773 141.058 42.6475 141.359 42.3537C141.661 42.06 141.899 41.7084 142.06 41.3202C142.22 40.932 142.3 40.5153 142.295 40.0954L142.246 36.6412C142.232 35.6002 141.815 34.6042 141.084 33.86C140.352 33.1158 139.36 32.6804 138.315 32.6442Z" fill="url(#paint3_linear_33_486)"/>
<g opacity="0.61">
<path opacity="0.61" d="M92.2307 194.959L153.642 198.936C154.857 199.015 155.822 198.273 155.8 197.281L155.795 197.091C155.772 196.101 154.771 195.236 153.561 195.158L92.3518 191.219C91.1564 191.142 90.1601 191.873 90.1262 192.852L90.1192 193.039C90.0878 194.019 91.032 194.879 92.2307 194.959Z" fill="white"/>
<path opacity="0.61" d="M153.779 205.032L92.0342 200.994C90.8287 200.915 89.8231 201.659 89.7911 202.656L89.7839 202.846C89.7492 203.846 90.7008 204.721 91.9104 204.801L153.868 208.877C155.093 208.958 156.067 208.206 156.044 207.195L156.039 207.002C156.01 205.992 155 205.111 153.779 205.032Z" fill="white"/>
<path opacity="0.61" d="M93.352 174.89L154.763 178.867C155.978 178.945 156.944 178.203 156.921 177.211L156.917 177.022C156.893 176.031 155.892 175.167 154.682 175.088L93.4723 171.149C92.2776 171.073 91.2815 171.803 91.2474 172.784L91.2405 172.97C91.2089 173.952 92.1523 174.812 93.352 174.89Z" fill="white"/>
<path opacity="0.61" d="M154.9 184.964L93.1552 180.928C91.9497 180.849 90.9449 181.592 90.9122 182.589L90.9058 182.779C90.8712 183.779 91.8227 184.655 93.0365 184.734L154.994 188.81C156.219 188.891 157.194 188.139 157.17 187.128L157.165 186.935C157.131 185.925 156.121 185.044 154.9 184.964Z" fill="white"/>
</g>
<path d="M115.336 54.8435C115.268 55.8902 114.655 56.7085 113.968 56.6726L46.3521 53.0097C45.5943 52.9684 45.0356 52.0438 45.1 50.9447L45.113 50.7774C45.1774 49.6775 45.8436 48.8204 46.6003 48.8633L114.229 52.72C114.917 52.7592 115.418 53.6398 115.35 54.6872L115.336 54.8435Z" fill="white"/>
<path d="M154.481 67.2024C154.413 68.2474 153.479 69.0466 152.397 68.9877L45.7554 63.1655C44.5624 63.1005 43.6438 62.1596 43.7042 61.0585L43.7172 60.8912C43.7773 59.7926 44.7979 58.9556 45.9872 59.0237L152.655 65.0406C153.74 65.1015 154.563 65.9995 154.495 67.0445L154.481 67.2024Z" fill="white"/>
<path d="M76.3373 111.245C76.3373 111.245 77.1618 109.103 78.7047 108.996C80.2475 108.89 81.5641 108.768 81.879 110.328C82.1938 111.889 81.6241 113.604 78.7818 113.622C75.9396 113.64 76.3373 111.245 76.3373 111.245Z" fill="white"/>
<path d="M79.7484 104.015C79.7484 104.015 81.3206 103.477 81.6532 104.82C81.9857 106.164 81.866 107.692 80.2781 108.453C78.6903 109.214 76.9611 108.868 76.6816 106.865C76.4021 104.861 78.4227 104.134 79.7484 104.015Z" fill="white"/>
<path d="M75.9104 102.619C75.5351 101.868 75.241 99.921 76.6202 99.1472C78.421 98.1378 79.3552 97.8234 80.1568 98.7677C80.9584 99.7121 81.7487 102.279 80.2348 103.393C78.6097 104.589 76.7538 104.308 75.9104 102.619Z" fill="white"/>
<path d="M76.4225 98.4164C76.2393 98.4298 76.0554 98.4041 75.8829 98.3412C75.7103 98.2783 75.5532 98.1796 75.422 98.0516C75.203 97.8359 75.0581 97.5569 75.008 97.2544C74.8578 96.3599 76.5072 94.9491 77.8505 94.6143C79.1938 94.2795 80.5715 95.915 79.4065 97.1633C78.5273 98.1081 77.8888 98.3269 76.4225 98.4164Z" fill="white"/>
<path d="M73.8835 94.7329C73.8835 94.7329 73.3452 93.1425 74.3069 92.1175C75.2685 91.0924 75.9748 90.4901 77.0327 91.0201C78.0906 91.5502 79.0635 93.1726 77.6669 94.1597C76.2702 95.1467 74.6734 95.9035 73.8835 94.7329Z" fill="white"/>
<path d="M72.692 91.7908C72.5755 91.7508 72.4702 91.6838 72.3848 91.5954C72.2994 91.507 72.2362 91.3996 72.2006 91.2822C72.0702 90.8759 72.0357 90.4452 72.0996 90.0235C72.1635 89.6019 72.3241 89.2007 72.5691 88.851C73.5476 87.4123 74.011 87.0209 75.035 87.7587C76.0589 88.4964 76.4371 89.1781 76.1727 89.8055C75.9082 90.4329 74.75 91.42 74.073 91.7973C73.6383 92.0387 73.0562 91.9126 72.692 91.7908Z" fill="white"/>
<path d="M70.263 85.6081C70.263 85.6081 70.8098 84.5028 72.1108 85.5373C73.4119 86.5718 73.8478 86.8372 73.3375 87.4842C72.8272 88.1312 71.7904 89.6545 70.4357 89.3101C69.081 88.9656 69.2407 86.9028 70.263 85.6081Z" fill="white"/>
<path d="M67.1067 87.9782C66.4436 87.9266 66.2574 87.4627 66.1051 86.5622C65.9528 85.6617 66.0902 83.8967 66.3454 83.4747C66.6006 83.0528 67.4668 83.3508 68.3314 83.6487C69.196 83.9465 70.0607 84.2427 70.0265 84.6827C69.9922 85.1227 69.3547 88.1649 67.1067 87.9782Z" fill="white"/>
<path d="M51.7604 109.466C51.7604 109.466 51.2607 107.196 49.705 106.858C48.1494 106.521 46.8125 106.197 46.2398 107.722C45.667 109.248 45.9798 111.063 48.8919 111.494C51.8041 111.926 51.7604 109.466 51.7604 109.466Z" fill="white"/>
<path d="M49.4279 101.694C49.4279 101.694 47.9043 100.902 47.3496 102.205C46.795 103.509 46.6739 105.065 48.1816 106.073C49.6893 107.081 51.5016 106.989 52.106 105.024C52.7104 103.059 50.7594 102.022 49.4279 101.694Z" fill="white"/>
<path d="M53.5546 100.893C54.0523 100.201 54.6567 98.3012 53.3829 97.3084C51.7129 96.0061 50.815 95.5399 49.8431 96.3597C48.8713 97.1794 47.6563 99.6348 49.0301 100.995C50.5007 102.446 52.433 102.453 53.5546 100.893Z" fill="white"/>
<path d="M53.6975 96.6126C53.8803 96.6552 54.07 96.6591 54.2544 96.624C54.4388 96.5889 54.6136 96.5156 54.7676 96.4089C55.022 96.2295 55.2122 95.9739 55.3105 95.6794C55.603 94.811 54.1561 93.1314 52.8464 92.5776C51.5367 92.0237 49.8697 93.4315 50.8607 94.8762C51.61 95.9603 52.2242 96.2808 53.6975 96.6126Z" fill="white"/>
<path d="M56.8406 93.347C56.8406 93.347 57.6334 91.851 56.8249 90.6697C56.0164 89.4883 55.3987 88.7662 54.2453 89.1157C53.0919 89.4652 51.8485 90.9279 53.108 92.1485C54.3675 93.3692 55.8613 94.3825 56.8406 93.347Z" fill="white"/>
<path d="M58.4984 90.6124C58.6209 90.5923 58.7368 90.5433 58.8364 90.4695C58.936 90.3957 59.0164 90.2993 59.0708 90.1882C59.2649 89.8038 59.367 89.3799 59.3689 88.9497C59.3708 88.5194 59.2727 88.0944 59.082 87.7081C58.3252 86.1125 57.9215 85.6401 56.7755 86.199C55.6295 86.7578 55.1385 87.3743 55.3068 88.0463C55.4752 88.7184 56.4876 89.8979 57.1115 90.3875C57.5099 90.7004 58.1141 90.6725 58.4984 90.6124Z" fill="white"/>
<path d="M61.8907 84.8842C61.8907 84.8842 61.5182 83.6947 60.061 84.4944C58.6037 85.294 58.1169 85.4867 58.5276 86.2172C58.9383 86.9477 59.7385 88.6383 61.1449 88.5248C62.5513 88.4112 62.7072 86.3439 61.8907 84.8842Z" fill="white"/>
<path d="M64.6568 87.7665C65.3208 87.8182 65.5756 87.4004 65.8661 86.5369C66.1565 85.6733 66.2928 83.9099 66.1063 83.4502C65.9197 82.9905 65.0175 83.1324 64.1143 83.2759C63.2112 83.4193 62.3063 83.5627 62.272 84.0043C62.2376 84.446 62.3966 87.5747 64.6568 87.7665Z" fill="white"/>
<path d="M75.8276 117.795C75.8276 117.795 76.3115 120.03 77.8211 120.351C79.3306 120.672 80.6139 120.978 81.1668 119.479C81.7197 117.981 81.4217 116.204 78.6132 115.788C75.8047 115.373 75.8276 117.795 75.8276 117.795Z" fill="white"/>
<path d="M78.0823 125.425C78.0823 125.425 79.554 126.178 80.091 124.895C80.6279 123.612 80.746 122.085 79.2932 121.109C77.8405 120.134 76.0767 120.234 75.4901 122.176C74.9035 124.118 76.7895 125.121 78.0823 125.425Z" fill="white"/>
<path d="M74.0701 126.266C73.5826 126.957 72.9904 128.842 74.2348 129.8C75.8596 131.052 76.735 131.494 77.674 130.672C78.613 129.851 79.792 127.423 78.4673 126.105C77.0448 124.698 75.1657 124.715 74.0701 126.266Z" fill="white"/>
<path d="M73.9261 130.495C73.7459 130.456 73.5595 130.456 73.3792 130.494C73.1988 130.532 73.0287 130.608 72.88 130.716C72.6303 130.898 72.444 131.153 72.3472 131.446C72.0602 132.309 73.4732 133.937 74.7503 134.453C76.0274 134.969 77.6429 133.548 76.6838 132.15C75.9601 131.096 75.3624 130.791 73.9261 130.495Z" fill="white"/>
<path d="M70.8449 133.781C70.8449 133.781 70.0663 135.278 70.8588 136.427C71.6512 137.576 72.2567 138.27 73.385 137.894C74.5134 137.518 75.7268 136.05 74.4982 134.878C73.2696 133.706 71.8072 132.735 70.8449 133.781Z" fill="white"/>
<path d="M69.2108 136.525C69.0891 136.549 68.9746 136.6 68.8765 136.676C68.7785 136.751 68.6995 136.848 68.6461 136.959C68.4544 137.34 68.3536 137.76 68.3515 138.186C68.3494 138.612 68.4462 139.033 68.6342 139.416C69.3796 140.974 69.7771 141.429 70.9041 140.842C72.0311 140.256 72.5106 139.635 72.3463 138.977C72.1819 138.319 71.189 137.181 70.5778 136.713C70.1852 136.413 69.59 136.456 69.2108 136.525Z" fill="white"/>
<path d="M65.8513 142.3C65.8513 142.3 66.2211 143.469 67.668 142.629C69.1149 141.789 69.5872 141.586 69.1825 140.876C68.7779 140.165 67.9884 138.511 66.5951 138.663C65.2017 138.815 65.0405 140.875 65.8513 142.3Z" fill="white"/>
<path d="M63.096 139.516C62.4319 139.479 62.1761 139.907 61.8861 140.777C61.5961 141.646 61.4587 143.411 61.6459 143.863C61.8331 144.316 62.7359 144.143 63.6371 143.971C64.5383 143.799 65.4395 143.626 65.4735 143.188C65.5076 142.751 65.3487 139.643 63.096 139.516Z" fill="white"/>
<path d="M51.2437 116.105C51.2437 116.105 50.398 118.281 48.8071 118.397C47.2161 118.513 45.8438 118.644 45.5134 117.055C45.183 115.467 45.7734 113.714 48.7204 113.697C51.6675 113.68 51.2437 116.105 51.2437 116.105Z" fill="white"/>
<path d="M47.7338 123.465C47.7338 123.465 46.1045 124.031 45.7574 122.667C45.4104 121.303 45.5318 119.742 47.179 118.958C48.8263 118.173 50.6046 118.517 50.8981 120.546C51.1917 122.575 49.1013 123.33 47.7338 123.465Z" fill="white"/>
<path d="M51.6914 124.836C52.0765 125.591 52.3803 127.554 50.9666 128.358C49.1134 129.412 48.153 129.748 47.3185 128.802C46.484 127.857 45.6625 125.256 47.2318 124.104C48.9112 122.872 50.8235 123.136 51.6914 124.836Z" fill="white"/>
<path d="M51.1697 129.094C51.3561 129.077 51.5441 129.099 51.7211 129.16C51.8982 129.221 52.0603 129.318 52.1967 129.446C52.4209 129.659 52.5697 129.939 52.6208 130.243C52.7757 131.143 51.0845 132.601 49.7037 132.962C48.3228 133.322 46.8917 131.7 48.0954 130.41C49.0044 129.442 49.6615 129.212 51.1697 129.094Z" fill="white"/>
<path d="M53.7734 132.761C53.7734 132.761 54.326 134.352 53.3434 135.407C52.3608 136.463 51.6382 137.09 50.5515 136.582C49.4648 136.074 48.4614 134.454 49.8961 133.422C51.3308 132.391 52.965 131.6 53.7734 132.761Z" fill="white"/>
<path d="M54.9898 135.699C55.1078 135.736 55.2151 135.8 55.3023 135.887C55.3895 135.975 55.454 136.082 55.4903 136.199C55.6227 136.609 55.6579 137.044 55.5932 137.47C55.5286 137.895 55.3658 138.3 55.1176 138.653C54.122 140.125 53.6495 140.536 52.6025 139.822C51.5556 139.109 51.1653 138.43 51.4359 137.789C51.7065 137.148 52.8903 136.124 53.5833 135.727C54.0257 135.473 54.619 135.585 54.9898 135.699Z" fill="white"/>
<path d="M57.458 141.844C57.458 141.844 56.9054 142.969 55.5879 141.973C54.2704 140.977 53.8186 140.719 54.338 140.054C54.8573 139.388 55.9104 137.829 57.284 138.138C58.6575 138.447 58.4918 140.512 57.458 141.844Z" fill="white"/>
<path d="M60.6405 139.378C61.3055 139.415 61.4925 139.869 61.6461 140.764C61.7997 141.659 61.6616 143.422 61.4059 143.851C61.1502 144.279 60.2796 144.015 59.4088 143.743C58.538 143.471 57.6649 143.206 57.6993 142.764C57.7336 142.323 58.3751 139.251 60.6405 139.378Z" fill="white"/>
<path opacity="0.86" d="M39.4439 148.637C38.6466 148.574 37.9068 148.199 37.387 147.593C36.8672 146.988 36.6099 146.202 36.6717 145.408L42.0067 76.8521C42.0587 76.2085 42.3531 75.6084 42.831 75.1719C43.3088 74.7355 43.9347 74.495 44.5835 74.4985L44.5952 74.4995L87.6256 76.6615C88.2004 76.6904 88.7637 76.8336 89.2822 77.0827C89.8006 77.3319 90.2637 77.6818 90.6442 78.112C91.0246 78.5421 91.3147 79.0437 91.4972 79.5872C91.6798 80.1306 91.7511 80.7049 91.707 81.2761L86.7303 145.641C86.6301 147.003 85.9991 148.273 84.9718 149.178C83.9445 150.084 82.6022 150.553 81.2311 150.488L39.5483 148.642L39.4439 148.637ZM44.5725 75.0632C44.0678 75.0617 43.5812 75.2497 43.2099 75.5897C42.8386 75.9298 42.61 76.3969 42.5697 76.8976L37.2347 145.453C37.2094 145.78 37.2505 146.108 37.3555 146.419C37.4604 146.73 37.6272 147.016 37.8458 147.261C38.0643 147.507 38.3303 147.706 38.6277 147.846C38.9251 147.987 39.2479 148.067 39.5768 148.081L81.2596 149.926C82.4844 149.985 83.6835 149.565 84.601 148.756C85.5185 147.947 86.0818 146.813 86.1707 145.595L91.1474 81.2317C91.1858 80.7354 91.124 80.2364 90.9654 79.7642C90.8069 79.292 90.5549 78.8561 90.2243 78.4824C89.8937 78.1087 89.4913 77.8046 89.0408 77.5882C88.5903 77.3718 88.1008 77.2475 87.6014 77.2226L44.5725 75.0632Z" fill="white"/>
<g opacity="0.9">
<path opacity="0.9" d="M97.0589 109.546L150.992 113.077C152.059 113.146 152.913 112.397 152.898 111.406L152.894 111.217C152.881 110.227 152.008 109.37 150.945 109.298L97.1904 105.804C96.1405 105.736 95.2604 106.474 95.2231 107.453L95.2162 107.64C95.1827 108.624 96.0057 109.478 97.0589 109.546Z" fill="white"/>
<path opacity="0.9" d="M151.064 119.169L96.8386 115.582C95.7805 115.511 94.8918 116.262 94.854 117.258L94.8468 117.449C94.8087 118.448 95.6391 119.317 96.7006 119.387L151.11 123.012C152.187 123.084 153.047 122.321 153.034 121.311L153.031 121.118C153.02 120.114 152.137 119.242 151.064 119.169Z" fill="white"/>
<path opacity="0.9" d="M95.5705 130.932L149.504 134.462C150.57 134.531 151.424 133.783 151.409 132.792L151.406 132.602C151.393 131.613 150.519 130.756 149.457 130.683L95.7021 127.188C94.6522 127.12 93.7721 127.858 93.7348 128.838L93.7278 129.025C93.6943 130.01 94.5207 130.863 95.5705 130.932Z" fill="white"/>
<path opacity="0.9" d="M149.576 140.556L95.3511 136.968C94.2929 136.898 93.4042 137.648 93.3664 138.645L93.3591 138.836C93.3212 139.834 94.1515 140.702 95.213 140.773L149.622 144.399C150.699 144.471 151.56 143.708 151.546 142.697L151.543 142.505C151.529 141.5 150.649 140.627 149.576 140.556Z" fill="white"/>
<path opacity="0.9" d="M98.1884 89.4797L152.121 93.0103C153.188 93.0798 154.042 92.3308 154.027 91.3391L154.024 91.1504C154.01 90.1605 153.138 89.3032 152.075 89.2314L98.3199 85.7375C97.2708 85.6693 96.3899 86.4069 96.3526 87.3861L96.3457 87.5733C96.3122 88.5578 97.1352 89.4112 98.1884 89.4797Z" fill="white"/>
<path opacity="0.9" d="M152.194 99.1038L97.97 95.5136C96.9109 95.4438 96.0223 96.1934 95.9845 97.1903L95.9773 97.3807C95.9392 98.3801 96.7696 99.2484 97.8319 99.3193L152.24 102.944C153.317 103.016 154.179 102.253 154.164 101.242L154.162 101.05C154.148 100.048 153.267 99.1755 152.194 99.1038Z" fill="white"/>
</g>
<path d="M60.5076 192.024C60.5076 192.024 58.9359 223.194 52.0107 225.17C51.4459 225.331 50.9606 225.299 50.5426 225.105C45.84 222.94 49.6433 200.258 43.3302 198.302L36.3868 197.856C29.2962 199.081 30.9589 226.235 24.3416 223.394C23.9519 223.22 23.6013 222.969 23.3104 222.658C23.29 222.636 23.2673 222.613 23.2461 222.591C18.007 216.928 20.1553 189.432 20.1553 189.432C14.9356 179.717 17.2449 167.147 17.2449 167.147C17.2184 159.28 27.2946 153.348 32.6823 157.122C35.9902 159.44 39.7921 160.551 42.2356 161.066C44.2962 160.902 47.3288 160.453 50.3395 159.24C50.9809 158.984 51.6085 158.695 52.2198 158.375C58.046 155.322 67.2804 162.494 66.2476 170.294C66.2477 170.292 66.9319 183.058 60.5076 192.024Z" fill="white"/>
<path opacity="0.2" d="M60.5076 192.024C60.5076 192.024 58.9358 223.194 52.0107 225.17C51.4459 225.331 50.9605 225.3 50.5425 225.106C56.2885 220.887 54.6032 196.876 53.212 193.708C51.8085 190.513 56.7511 185.107 59.3381 174.32C61.9251 163.533 50.3397 159.237 50.3397 159.237C50.9809 158.982 51.6085 158.694 52.2198 158.375C58.046 155.321 67.2804 162.494 66.2476 170.293C66.2477 170.292 66.9319 183.058 60.5076 192.024Z" fill="url(#paint4_linear_33_486)"/>
<path opacity="0.3" d="M37.9026 197.953L36.3914 197.856C29.3008 199.081 30.9635 226.235 24.3462 223.394C23.9566 223.22 23.6059 222.97 23.315 222.658C28.7523 225.212 29.6218 203.528 30.7674 200.007C31.9129 196.486 37.9026 197.953 37.9026 197.953Z" fill="url(#paint5_linear_33_486)"/>
<path d="M105.552 196.181C105.552 196.181 103.98 227.35 97.0551 229.326C96.4903 229.488 96.005 229.455 95.587 229.262C90.8843 227.097 94.6877 204.415 88.3746 202.458L81.4311 202.012C74.3414 203.237 76.0032 230.392 69.386 227.551C68.9966 227.377 68.6462 227.127 68.3555 226.815C68.3344 226.792 68.3117 226.77 68.2905 226.748C63.0514 221.085 65.2005 193.589 65.2005 193.589C59.9807 183.874 62.29 171.304 62.29 171.304C62.2628 163.437 72.339 157.505 77.7266 161.279C81.0346 163.596 84.8364 164.708 87.2808 165.222C89.3406 165.059 92.3732 164.61 95.3846 163.397C96.0249 163.141 96.6516 162.853 97.2625 162.534C103.089 159.48 112.323 166.652 111.29 174.452C111.29 174.449 111.971 187.214 105.552 196.181Z" fill="white"/>
<path opacity="0.2" d="M105.552 196.18C105.552 196.18 103.98 227.35 97.0552 229.326C96.4904 229.488 96.005 229.456 95.587 229.263C101.333 225.043 99.6478 201.032 98.2566 197.864C96.8531 194.67 101.796 189.264 104.383 178.477C106.971 167.69 95.385 163.394 95.385 163.394C96.0252 163.138 96.652 162.849 97.2628 162.53C103.089 159.476 112.323 166.65 111.29 174.448C111.29 174.448 111.971 187.214 105.552 196.18Z" fill="url(#paint6_linear_33_486)"/>
<path opacity="0.3" d="M82.9419 202.106L81.4306 202.009C74.3408 203.234 76.0027 230.388 69.3854 227.547C68.9961 227.373 68.6457 227.123 68.355 226.812C73.7923 229.365 74.6611 207.681 75.8073 204.161C76.9536 200.641 82.9419 202.106 82.9419 202.106Z" fill="url(#paint7_linear_33_486)"/>
<path d="M150.764 197.822C150.764 197.822 149.193 228.991 142.267 230.967C141.703 231.129 141.217 231.096 140.799 230.903C136.097 228.738 139.9 206.056 133.587 204.1L126.643 203.654C119.553 204.878 121.216 232.033 114.598 229.192C114.209 229.018 113.858 228.767 113.568 228.456L113.503 228.389C108.264 222.726 110.413 195.23 110.413 195.23C105.192 185.515 107.502 172.945 107.502 172.945C107.475 165.078 117.551 159.146 122.939 162.919C126.247 165.238 130.049 166.349 132.493 166.864C134.553 166.7 137.585 166.251 140.596 165.038C141.237 164.782 141.863 164.494 142.474 164.175C148.301 161.121 157.535 168.294 156.502 176.093C156.502 176.09 157.182 188.856 150.764 197.822Z" fill="white"/>
<path opacity="0.2" d="M150.764 197.822C150.764 197.822 149.193 228.991 142.267 230.968C141.703 231.129 141.217 231.098 140.799 230.904C146.545 226.685 144.86 202.674 143.469 199.506C142.065 196.311 147.008 190.905 149.595 180.118C152.182 169.331 140.596 165.035 140.596 165.035C141.237 164.779 141.863 164.491 142.474 164.172C148.301 161.118 157.536 168.291 156.502 176.09C156.502 176.09 157.182 188.856 150.764 197.822Z" fill="url(#paint8_linear_33_486)"/>
<path opacity="0.3" d="M128.155 203.75L126.643 203.653C119.553 204.878 121.216 232.033 114.598 229.192C114.209 229.017 113.858 228.767 113.568 228.455C119.004 231.009 119.874 209.325 121.019 205.804C122.165 202.284 128.155 203.75 128.155 203.75Z" fill="url(#paint9_linear_33_486)"/>
<path d="M39.8439 175.426L34.1564 175.216C32.1834 175.145 30.4829 176.563 30.3656 178.388L29.8269 186.775C29.7099 188.597 31.2188 190.114 33.1962 190.164L38.888 190.309C40.8391 190.356 42.5111 188.935 42.6267 187.134L43.1604 178.826C43.2765 177.018 41.7935 175.497 39.8439 175.426Z" fill="url(#paint10_linear_33_486)"/>
<path d="M38.6753 178.409L34.9405 178.281C33.8667 178.245 32.9436 179.019 32.8798 180.012L32.5393 185.313C32.4756 186.305 33.2958 187.133 34.37 187.163L38.1064 187.266C39.1728 187.296 40.0874 186.519 40.1507 185.535L40.4894 180.261C40.5528 179.274 39.7413 178.445 38.6753 178.409Z" fill="url(#paint11_linear_33_486)"/>
<path d="M86.3831 177.12L81.082 176.927C79.2436 176.86 77.6583 178.232 77.5454 179.99L77.0254 188.085C76.9124 189.844 78.3157 191.307 80.1553 191.354L85.4602 191.488C87.2796 191.534 88.8417 190.159 88.9537 188.416L89.4689 180.395C89.5809 178.652 88.2012 177.186 86.3831 177.12Z" fill="url(#paint12_linear_33_486)"/>
<path d="M85.2873 180.001L81.8092 179.882C80.8078 179.848 79.9457 180.596 79.8841 181.554L79.5552 186.675C79.4937 187.632 80.2565 188.431 81.2583 188.458L84.7378 188.554C85.7326 188.582 86.5871 187.832 86.6483 186.88L86.9752 181.79C87.0374 180.834 86.2816 180.035 85.2873 180.001Z" fill="url(#paint13_linear_33_486)"/>
<path d="M127.918 178.632L122.95 178.451C121.228 178.388 119.739 179.719 119.63 181.42L119.127 189.256C119.099 189.657 119.154 190.06 119.289 190.439C119.423 190.818 119.633 191.167 119.907 191.463C120.181 191.759 120.512 191.996 120.881 192.16C121.25 192.324 121.649 192.412 122.053 192.417L127.025 192.543C127.851 192.559 128.651 192.259 129.261 191.706C129.872 191.152 130.245 190.386 130.305 189.566L130.804 181.799C130.832 181.4 130.778 181.001 130.647 180.623C130.515 180.246 130.308 179.899 130.039 179.604C129.769 179.308 129.442 179.069 129.078 178.902C128.714 178.735 128.319 178.643 127.918 178.632Z" fill="url(#paint14_linear_33_486)"/>
<path d="M126.885 181.422L123.626 181.31C123.173 181.296 122.732 181.457 122.395 181.759C122.058 182.06 121.852 182.48 121.819 182.93L121.5 187.884C121.485 188.103 121.515 188.322 121.588 188.529C121.661 188.736 121.775 188.926 121.924 189.087C122.073 189.249 122.254 189.378 122.455 189.468C122.655 189.558 122.873 189.606 123.093 189.609L126.353 189.699C126.805 189.71 127.243 189.547 127.576 189.245C127.91 188.942 128.115 188.524 128.148 188.076L128.464 183.148C128.479 182.931 128.45 182.712 128.378 182.506C128.306 182.3 128.193 182.111 128.045 181.95C127.898 181.788 127.719 181.658 127.519 181.567C127.32 181.477 127.104 181.427 126.885 181.422Z" fill="url(#paint15_linear_33_486)"/>
<path d="M38.9537 175.493L33.2661 175.283C31.294 175.211 29.5926 176.629 29.4754 178.454L28.9366 186.841C28.8196 188.663 30.3293 190.18 32.306 190.23L37.9978 190.375C39.9496 190.422 41.6216 189.001 41.7373 187.2L42.2709 178.893C42.3871 177.084 40.9041 175.564 38.9537 175.493Z" fill="#7D97F4"/>
<path d="M85.4936 177.187L80.1917 176.993C78.3542 176.927 76.7681 178.298 76.6551 180.056L76.1351 188.152C76.0222 189.91 77.4262 191.374 79.265 191.42L84.5707 191.555C86.3901 191.601 87.9515 190.226 88.0634 188.483L88.5787 180.461C88.693 178.719 87.3118 177.252 85.4936 177.187Z" fill="#7D97F4"/>
<path d="M127.028 178.698L122.06 178.517C120.338 178.455 118.849 179.786 118.74 181.486L118.237 189.322C118.209 189.723 118.264 190.126 118.398 190.505C118.532 190.885 118.743 191.233 119.017 191.529C119.291 191.825 119.622 192.062 119.991 192.226C120.36 192.39 120.759 192.478 121.163 192.483L126.134 192.609C126.96 192.626 127.761 192.326 128.371 191.772C128.982 191.218 129.355 190.452 129.415 189.632L129.914 181.865C129.942 181.467 129.888 181.067 129.757 180.69C129.625 180.312 129.418 179.965 129.149 179.67C128.879 179.374 128.552 179.135 128.188 178.968C127.823 178.801 127.429 178.71 127.028 178.698Z" fill="#7D97F4"/>
<path d="M35.5924 183.815L35.6592 181.889C36.1346 181.906 83.648 183.57 124.117 184.622L124.071 186.548C83.5898 185.495 36.0678 183.831 35.5924 183.815Z" fill="#7D97F4"/>
<path d="M37.7882 178.476L34.0535 178.348C32.9789 178.311 32.0566 179.086 31.9928 180.078L31.6523 185.38C31.5886 186.372 32.4087 187.2 33.483 187.229L37.2193 187.333C38.2857 187.362 39.2012 186.586 39.2644 185.601L39.6031 180.328C39.6634 179.341 38.8511 178.512 37.7882 178.476Z" fill="url(#paint16_linear_33_486)"/>
<path d="M84.3955 180.067L80.9167 179.948C79.916 179.914 79.0539 180.662 78.9924 181.62L78.6634 186.741C78.6019 187.699 79.3647 188.498 80.3658 188.525L83.8461 188.621C84.8401 188.648 85.6946 187.898 85.7558 186.946L86.0827 181.856C86.1464 180.901 85.3914 180.102 84.3955 180.067Z" fill="url(#paint17_linear_33_486)"/>
<path d="M125.996 181.488L122.736 181.377C122.282 181.362 121.841 181.523 121.505 181.825C121.168 182.127 120.962 182.547 120.928 182.997L120.61 187.951C120.595 188.169 120.625 188.389 120.698 188.595C120.771 188.802 120.886 188.992 121.034 189.153C121.183 189.315 121.364 189.444 121.565 189.534C121.765 189.624 121.982 189.672 122.202 189.676L125.464 189.766C125.915 189.776 126.353 189.613 126.686 189.311C127.02 189.009 127.225 188.59 127.257 188.143L127.574 183.215C127.589 182.997 127.56 182.779 127.488 182.573C127.416 182.367 127.303 182.178 127.155 182.016C127.008 181.855 126.829 181.725 126.63 181.634C126.43 181.543 126.215 181.494 125.996 181.488Z" fill="url(#paint18_linear_33_486)"/>
<path d="M175.54 112.305C175.557 112.32 175.57 112.338 175.58 112.357L175.765 112.379C175.783 112.409 175.98 112.473 175.976 112.528L175.794 112.573C175.789 112.634 175.699 112.702 175.711 112.787L175.667 112.82C175.779 114.062 176.646 117.504 177.544 121.942C177.554 121.979 177.547 122.018 177.556 122.055C179.571 132.013 182.428 146.987 183.108 153.87C183.108 153.87 185.163 155.092 188.447 155.873L188.456 155.874C193.18 157.293 200.358 158.82 207.243 157.582C207.243 157.582 213.162 128.4 210.756 102.526C210.756 102.526 199.451 98.7683 187.07 97.0196C187.006 97.0146 186.925 97.228 186.862 97.2188C185.863 97.0847 184.84 97.1962 183.833 97.1178L182.681 97.0282C182.165 96.988 181.22 97.0962 180.097 97.4692C180.064 97.4784 180.009 97.3605 180.008 97.378C180.008 97.3461 180.006 97.3142 180.002 97.2825C180.002 97.2825 179.808 97.3516 179.722 97.381C179.593 97.4232 179.461 97.4651 179.324 97.5184C179.296 97.5316 179.267 97.5429 179.237 97.552C179.224 97.5594 179.208 97.5599 179.196 97.5673C179.108 97.6043 179.021 97.6379 178.922 97.6773C178.903 97.6825 178.885 97.689 178.868 97.6966C178.76 97.7405 178.652 97.7876 178.539 97.8352C178.522 97.8414 178.606 97.8564 178.589 97.8668C178.46 97.9208 178.295 97.9761 178.162 98.0339C178.029 98.0917 177.949 98.141 177.935 98.2081L177.927 98.1031C177.865 98.1303 177.798 98.1613 177.735 98.1925C177.729 98.194 177.724 98.1962 177.718 98.1988C176.999 98.541 176.31 98.9456 175.662 99.408C175.662 99.408 175.661 99.4164 175.653 99.4199C175.644 99.4234 175.63 99.4459 175.622 99.4571C172.471 103.851 170.59 111.3 175.54 112.305Z" fill="url(#paint19_linear_33_486)"/>
<path d="M145.829 117.678C158.472 117.333 165.107 108.174 170.244 102.422C177.025 94.8283 183.711 96.7515 183.711 96.7515L178.166 114.245C167.714 128.278 154.351 127.943 145.536 125.56C144.965 122.95 145.066 120.238 145.829 117.678Z" fill="#7D97F4"/>
<path d="M127.21 113.435L131.686 114.898C137.116 116.997 141.776 117.787 145.829 117.681C145.066 120.241 144.965 122.952 145.536 125.562C139.925 124.045 136.156 121.698 136.156 121.698C125.92 117.845 127.21 113.435 127.21 113.435Z" fill="#7D97F4"/>
<path d="M116.211 121.296C116.264 120.843 116.418 120.407 116.663 120.021C116.908 119.634 117.237 119.308 117.626 119.066L125.317 114.279C125.317 114.279 125.252 113.198 123.247 112.812C121.242 112.426 121.304 110.257 121.304 110.257C121.304 110.257 124.076 110.966 128.16 112.146C130.495 112.821 132.038 114.467 132.925 115.761L131.294 118.932C126.461 121.366 121.346 122.574 116.021 122.893L116.211 121.296Z" fill="url(#paint20_linear_33_486)"/>
<path d="M182.592 96.5672C182.636 96.5706 182.676 96.5738 182.716 96.5769C182.728 96.5778 182.736 96.5785 182.749 96.571L182.592 96.5672Z" fill="url(#paint21_linear_33_486)"/>
<path d="M180.081 96.2361L180.096 96.2443L180.097 96.2294C180.095 96.2316 180.092 96.2333 180.09 96.2344C180.087 96.2356 180.084 96.2362 180.081 96.2361Z" fill="url(#paint22_linear_33_486)"/>
<path d="M176.622 235.761C176.622 235.761 176.987 239.479 177.024 243.135C177.027 243.474 176.96 243.81 176.828 244.123C176.697 244.435 176.503 244.718 176.258 244.954C176.014 245.19 175.724 245.374 175.406 245.495C175.088 245.616 174.749 245.672 174.409 245.659C169.535 245.482 159.113 245.065 155.397 244.609C155.267 244.593 155.143 244.546 155.035 244.472C154.928 244.399 154.839 244.3 154.777 244.186C154.715 244.071 154.682 243.943 154.68 243.813C154.677 243.683 154.706 243.555 154.764 243.438C154.972 243.017 155.335 242.692 155.777 242.53L173.553 236.013L176.622 235.761Z" fill="url(#paint23_linear_33_486)"/>
<path d="M177.323 233.645L176.458 237.992C176.458 237.992 173.343 239.151 171.412 237.422L173.038 232.63L177.323 233.645Z" fill="url(#paint24_linear_33_486)"/>
<path d="M183.349 151.131C183.486 152.294 180.112 208.402 172.141 233.042C172.076 233.237 172.084 233.447 172.162 233.636C172.24 233.826 172.384 233.98 172.568 234.073C173.463 234.52 175.228 235.206 177.391 235.445C177.717 235.482 178.045 235.409 178.325 235.239C178.605 235.069 178.819 234.811 178.936 234.506C181.109 228.814 191.622 200.267 194.868 172.468C198.493 141.404 194.95 171.407 194.95 171.407L195.744 152.093L183.349 151.131Z" fill="url(#paint25_linear_33_486)"/>
<path d="M196.218 239.211C196.218 239.211 197.11 241.144 197.73 246.145C197.757 246.358 197.739 246.574 197.677 246.78C197.615 246.985 197.51 247.175 197.37 247.338C197.229 247.5 197.056 247.631 196.861 247.723C196.666 247.814 196.454 247.864 196.238 247.868C194.622 247.901 192.137 247.91 190.16 247.743C189.945 247.725 189.736 247.663 189.547 247.559C189.358 247.456 189.193 247.314 189.062 247.142C188.932 246.971 188.84 246.774 188.791 246.565C188.742 246.356 188.738 246.139 188.78 245.928C189.139 244.149 190.051 241.255 192.339 239.122L196.218 239.211Z" fill="url(#paint26_linear_33_486)"/>
<path d="M197.567 233.639L195.829 240.179C195.829 240.179 194.551 240.98 192.211 240.145L193.35 233.051L197.567 233.639Z" fill="url(#paint27_linear_33_486)"/>
<path d="M207.032 154.703C209.652 184.648 200.278 227.685 197.596 236.043C197.516 236.293 197.364 236.515 197.158 236.68C196.953 236.844 196.703 236.944 196.44 236.968C195.526 237.047 194.033 237.052 192.603 236.515C192.362 236.425 192.156 236.261 192.014 236.048C191.872 235.834 191.801 235.582 191.811 235.326C192.075 228.421 195.852 186.199 192.565 169.141C192.398 168.277 191.936 167.498 191.258 166.935L182.848 159.945L182.958 149.711L207.032 154.703Z" fill="url(#paint28_linear_33_486)"/>
<path d="M203.99 116.29L210.753 102.517C210.753 102.517 223.804 112.905 225.15 124.893C222.53 124.882 217.743 125.187 212.926 127.156C212.342 121.498 203.99 116.29 203.99 116.29Z" fill="#91B3FA"/>
<path d="M195.898 85.4933L199.538 99.3659C199.567 99.477 199.557 99.5949 199.508 99.6989C199.459 99.8028 199.374 99.8862 199.269 99.9342C197.936 100.538 193.168 102.215 187.887 98.2775C187.614 98.0765 187.39 97.8182 187.228 97.5211C187.067 97.2239 186.974 96.8951 186.955 96.558L186.345 84.749L195.898 85.4933Z" fill="url(#paint29_linear_33_486)"/>
<path d="M203.695 100.437L198.464 95.2679L188.503 114.972L188.317 196.336L207.346 198.388C207.412 198.396 207.48 198.389 207.544 198.37C207.608 198.35 207.667 198.318 207.718 198.274C207.769 198.231 207.811 198.177 207.84 198.117C207.869 198.057 207.886 197.992 207.889 197.925L211.28 119.9C211.28 119.9 212.515 103.081 210.753 102.518C208.991 101.955 203.695 100.437 203.695 100.437Z" fill="#91B3FA"/>
<path d="M175.949 112.394L175.974 112.528L175.792 112.573L175.708 112.787L176.096 112.854L176.8 129.066L176.8 129.074L177.814 196.57C177.819 196.706 177.642 196.809 177.74 196.9C177.838 196.992 177.854 197.026 177.985 197.016L188.369 196.335L188.473 155.874L188.46 155.814L188.666 113.92L187.223 96.9766L187.224 96.9691L186.92 94.3552L183.914 96.5618L183.851 96.5569L183.042 96.5377L182.705 96.5274C182.183 96.6231 180.019 97.2441 180.019 97.2441C180.019 97.2441 179.259 97.5132 178.895 97.6531C178.88 97.6589 178.866 97.6657 178.852 97.6734C178.743 97.7171 178.64 97.7654 178.528 97.8123C178.511 97.8194 178.604 97.8342 178.587 97.8455C178.362 97.9475 178.153 98.0642 178.143 98.2031L178.142 98.2106L175.987 112.316L175.984 112.364L175.949 112.394Z" fill="#7D97F4"/>
<path d="M185.332 114.559L185.178 116.539L177.857 115.527L178.028 113.327L185.332 114.559Z" fill="url(#paint30_linear_33_486)"/>
<path d="M188.59 119.692C188.623 119.694 188.656 119.688 188.686 119.675L195.39 116.736C195.419 116.723 195.444 116.704 195.464 116.68C195.484 116.656 195.498 116.628 195.505 116.597L196.847 110.758L199.227 110.522C199.263 110.519 199.298 110.505 199.328 110.483C199.357 110.461 199.38 110.432 199.394 110.397L202.502 102.56C202.521 102.511 202.52 102.456 202.499 102.408C202.478 102.359 202.438 102.321 202.389 102.301C202.339 102.282 202.284 102.283 202.235 102.304C202.187 102.325 202.148 102.364 202.129 102.413L199.066 110.136L196.664 110.37C196.622 110.374 196.582 110.391 196.551 110.419C196.519 110.447 196.497 110.484 196.488 110.525L195.136 116.406L188.525 119.308C188.484 119.326 188.451 119.357 188.43 119.396C188.409 119.435 188.402 119.48 188.409 119.524C188.417 119.567 188.439 119.607 188.471 119.637C188.504 119.667 188.546 119.685 188.591 119.689L188.59 119.692Z" fill="url(#paint31_linear_33_486)"/>
<path d="M187.212 117.595C187.238 117.597 187.265 117.592 187.289 117.581C187.306 117.572 187.322 117.561 187.336 117.546C187.349 117.531 187.359 117.514 187.366 117.496C187.372 117.477 187.375 117.458 187.374 117.438C187.373 117.419 187.368 117.399 187.36 117.382L184.441 111.226L185.257 107.938C185.265 107.908 185.263 107.876 185.251 107.847C185.239 107.818 185.219 107.793 185.192 107.777L182.587 106.126L184.023 96.599C184.029 96.5598 184.019 96.5197 183.995 96.4878C183.971 96.4558 183.936 96.4344 183.896 96.4285C183.857 96.4225 183.817 96.4324 183.785 96.4559C183.752 96.4795 183.731 96.5147 183.725 96.554L182.275 106.177C182.271 106.206 182.275 106.235 182.287 106.262C182.299 106.288 182.318 106.311 182.343 106.326L184.939 107.972L184.136 111.205C184.128 111.239 184.131 111.274 184.146 111.305L187.088 117.509C187.099 117.533 187.117 117.553 187.138 117.568C187.16 117.584 187.186 117.593 187.212 117.595Z" fill="url(#paint32_linear_33_486)"/>
<path d="M190.926 128.311C190.926 128.311 205.713 138.214 211.512 131.192C212.716 129.734 213.096 128.221 212.941 126.738C217.759 124.769 222.548 124.464 225.165 124.476C225.571 128.09 224.915 131.849 222.515 135.514C212.078 151.448 188.584 131.947 188.584 131.947L190.926 128.311Z" fill="#91B3FA"/>
<path d="M191.928 139.463L185.77 109.464C185.736 109.298 185.654 109.146 185.533 109.026C185.412 108.906 185.258 108.825 185.091 108.792C183.575 108.495 179.183 107.652 174.099 106.823C167.977 105.824 160.852 104.847 156.547 104.868C156.406 104.868 156.267 104.902 156.142 104.968C156.018 105.034 155.911 105.13 155.832 105.246C155.753 105.363 155.704 105.497 155.689 105.637C155.674 105.776 155.694 105.918 155.746 106.048C157.797 111.135 166.253 131.837 170.754 138.753C170.827 138.866 170.925 138.96 171.042 139.028C171.158 139.097 171.288 139.137 171.423 139.146L191.018 140.49C191.151 140.499 191.284 140.478 191.407 140.427C191.53 140.377 191.64 140.299 191.728 140.2C191.816 140.101 191.88 139.983 191.914 139.855C191.949 139.727 191.954 139.593 191.928 139.463Z" fill="url(#paint33_linear_33_486)"/>
<path d="M173.422 104.21L167.38 102.719C167.307 102.701 167.23 102.702 167.157 102.722C167.084 102.742 167.017 102.781 166.963 102.834C166.91 102.888 166.871 102.954 166.85 103.027C166.83 103.099 166.829 103.176 166.847 103.249L167.311 105.124C167.331 105.204 167.373 105.277 167.432 105.334C167.492 105.391 167.566 105.431 167.647 105.448L173.475 106.69C173.545 106.704 173.617 106.702 173.686 106.683C173.755 106.664 173.817 106.628 173.869 106.58C173.921 106.531 173.96 106.47 173.983 106.403C174.007 106.336 174.013 106.265 174.002 106.194L173.752 104.57C173.739 104.485 173.7 104.405 173.642 104.341C173.583 104.277 173.507 104.231 173.422 104.21Z" fill="url(#paint34_linear_33_486)"/>
<path d="M177.603 109.724L177.302 107.07C177.287 106.941 177.231 106.82 177.142 106.724C177.052 106.629 176.934 106.565 176.805 106.542L164.542 104.331C164.446 104.314 164.348 104.32 164.255 104.348C164.162 104.377 164.077 104.427 164.007 104.495C163.938 104.562 163.886 104.646 163.855 104.738C163.825 104.83 163.817 104.928 163.832 105.023L164.365 108.342C164.386 108.471 164.448 108.59 164.542 108.681C164.637 108.773 164.758 108.831 164.889 108.847L176.921 110.393C177.012 110.404 177.105 110.395 177.193 110.366C177.28 110.337 177.36 110.288 177.425 110.224C177.491 110.159 177.541 110.081 177.572 109.994C177.603 109.907 177.613 109.815 177.603 109.724Z" fill="url(#paint35_linear_33_486)"/>
<path d="M190.44 132.215C190.44 132.215 191.991 127.494 191.649 125.75C191.307 124.006 190.559 121.739 187.461 121.988C184.362 122.238 180.646 123.241 180.646 123.241C180.646 123.241 180.656 125.479 183.04 124.942L181.509 125.941C181.509 125.941 181.577 127.738 183.618 126.94L182.159 128.31C182.159 128.31 182.889 129.838 184.409 129.012C185.928 128.186 186.292 132.475 190.44 132.215Z" fill="url(#paint36_linear_33_486)"/>
<path d="M205.147 133.764C206.584 133.876 207.92 133.767 208.966 133.296C208.991 133.286 209.013 133.271 209.032 133.252C209.051 133.233 209.066 133.21 209.076 133.185C209.086 133.16 209.09 133.134 209.09 133.107C209.089 133.08 209.083 133.054 209.072 133.03C209.061 133.005 209.045 132.983 209.025 132.965C209.005 132.947 208.982 132.933 208.957 132.924C208.931 132.915 208.905 132.911 208.878 132.912C208.851 132.914 208.825 132.921 208.8 132.933C204.507 134.864 194.632 130.217 194.532 130.169C194.505 130.157 192.582 129.32 191.982 127.892C191.96 127.846 191.92 127.81 191.872 127.792C191.824 127.773 191.771 127.774 191.723 127.794C191.676 127.814 191.638 127.851 191.617 127.898C191.596 127.945 191.595 127.998 191.612 128.046C192.275 129.624 194.282 130.497 194.367 130.533C194.679 130.68 200.455 133.399 205.147 133.764Z" fill="url(#paint37_linear_33_486)"/>
<path d="M210.137 141.783C210.245 141.791 210.333 141.798 210.346 141.69C210.359 141.581 210.274 141.523 210.166 141.507C198.451 140.191 192.18 134.34 192.118 134.28C192.098 134.262 192.075 134.249 192.05 134.24C192.025 134.232 191.999 134.228 191.972 134.23C191.946 134.231 191.92 134.238 191.896 134.249C191.872 134.261 191.851 134.277 191.833 134.297C191.757 134.375 191.766 134.424 191.845 134.5C191.908 134.561 198.251 140.854 210.134 141.779L210.137 141.783Z" fill="url(#paint38_linear_33_486)"/>
<path d="M184.504 71.7247C184.504 71.7247 181.602 79.7411 181.637 83.8472C181.672 87.9533 180.963 90.6677 185.77 91.1882C190.578 91.7088 194.43 89.0951 196.334 84.8789C196.334 84.8789 199.323 78.3792 198.393 75.8553C197.462 73.3314 184.504 71.7247 184.504 71.7247Z" fill="url(#paint39_linear_33_486)"/>
<path d="M203.674 73.6744C202.698 72.9588 202.013 73.1243 201.597 73.4168C201.545 73.4536 201.483 73.4744 201.42 73.4765C201.356 73.4786 201.293 73.4619 201.239 73.4285C201.238 73.3072 201.111 64.8725 189.527 65.4531C188.939 65.4826 188.355 65.337 187.849 65.035C187.344 64.7329 186.94 64.288 186.689 63.7569C185.518 61.2741 183.218 57.5791 181.009 60.8424C177.868 65.4849 176.553 71.7944 184.277 73.7201C184.734 73.8347 185.196 73.933 185.661 74.0197C188.83 75.0641 192.491 75.6006 193.828 76.0488C196.062 76.7975 193.911 81.9386 193.911 81.9386L194.512 81.9012L195.793 81.8191C195.979 81.8075 196.142 82.028 196.143 82.2141L196.156 85.8414C196.156 85.9192 196.182 85.9947 196.231 86.0557C196.28 86.1167 196.348 86.1594 196.424 86.1769C196.998 86.2847 198.505 86.3448 200.946 84.8374C203.333 83.3636 202.317 82.4421 201.648 82.0686C201.605 82.0429 201.569 82.0077 201.543 81.9656C201.516 81.9236 201.5 81.8759 201.495 81.8264C201.49 81.777 201.497 81.7271 201.515 81.6808C201.533 81.6345 201.562 81.593 201.599 81.5598C204.942 78.4571 205.373 74.9225 203.674 73.6744Z" fill="url(#paint40_linear_33_486)"/>
<path d="M194.422 82.8106C194.422 82.8106 195.398 77.7455 197.733 78.9985C200.068 80.2515 196.932 84.6588 195.141 84.957L194.422 82.8106Z" fill="url(#paint41_linear_33_486)"/>
<path d="M182.365 72.0211C182.396 72.0191 182.426 72.008 182.451 71.9892C182.476 71.9704 182.495 71.9448 182.505 71.9154C182.516 71.886 182.517 71.8543 182.51 71.824C182.502 71.7937 182.486 71.7663 182.463 71.7451C180.915 70.3186 180.127 68.7475 180.121 67.0757C180.106 64.167 182.482 61.9055 182.506 61.8829C182.534 61.8534 182.55 61.8142 182.55 61.7734C182.55 61.7326 182.535 61.6933 182.506 61.6636C182.478 61.6339 182.44 61.6161 182.399 61.6138C182.358 61.6115 182.318 61.6249 182.286 61.6512C182.184 61.7468 179.788 64.026 179.801 67.0743C179.808 68.8421 180.634 70.4894 182.247 71.9774C182.263 71.9922 182.281 72.0037 182.301 72.0112C182.322 72.0187 182.343 72.0221 182.365 72.0211Z" fill="#91B3FA"/>
</g>
<defs>
<linearGradient id="paint0_linear_33_486" x1="109.332" y1="175.347" x2="54.1602" y2="-15.2938" gradientUnits="userSpaceOnUse">
<stop stop-color="#E38DDD"/>
<stop offset="1" stop-color="#9571F6"/>
</linearGradient>
<linearGradient id="paint1_linear_33_486" x1="43147.3" y1="19716.4" x2="24123.3" y2="26473.3" gradientUnits="userSpaceOnUse">
<stop stop-color="#09005D"/>
<stop offset="1" stop-color="#1A0F91"/>
</linearGradient>
<linearGradient id="paint2_linear_33_486" x1="77199.8" y1="53847.7" x2="79836.6" y2="70933.2" gradientUnits="userSpaceOnUse">
<stop stop-color="#09005D"/>
<stop offset="1" stop-color="#1A0F91"/>
</linearGradient>
<linearGradient id="paint3_linear_33_486" x1="148107" y1="5333.17" x2="147086" y2="14395.3" gradientUnits="userSpaceOnUse">
<stop stop-color="#09005D"/>
<stop offset="1" stop-color="#1A0F91"/>
</linearGradient>
<linearGradient id="paint4_linear_33_486" x1="48.2929" y1="191.137" x2="65.0121" y2="192.211" gradientUnits="userSpaceOnUse">
<stop stop-color="#53D8FF"/>
<stop offset="1" stop-color="#3840F7"/>
</linearGradient>
<linearGradient id="paint5_linear_33_486" x1="9900.17" y1="76430.6" x2="12058.7" y2="76569.3" gradientUnits="userSpaceOnUse">
<stop stop-color="#53D8FF"/>
<stop offset="1" stop-color="#3840F7"/>
</linearGradient>
<linearGradient id="paint6_linear_33_486" x1="22477.4" y1="177482" x2="26076.8" y2="177713" gradientUnits="userSpaceOnUse">
<stop stop-color="#53D8FF"/>
<stop offset="1" stop-color="#3840F7"/>
</linearGradient>
<linearGradient id="paint7_linear_33_486" x1="17439.3" y1="77348.4" x2="19597.6" y2="77487" gradientUnits="userSpaceOnUse">
<stop stop-color="#53D8FF"/>
<stop offset="1" stop-color="#3840F7"/>
</linearGradient>
<linearGradient id="paint8_linear_33_486" x1="32310.9" y1="177008" x2="35910.6" y2="177239" gradientUnits="userSpaceOnUse">
<stop stop-color="#53D8FF"/>
<stop offset="1" stop-color="#3840F7"/>
</linearGradient>
<linearGradient id="paint9_linear_33_486" x1="25036" y1="77402.9" x2="27194.3" y2="77541.6" gradientUnits="userSpaceOnUse">
<stop stop-color="#53D8FF"/>
<stop offset="1" stop-color="#3840F7"/>
</linearGradient>
<linearGradient id="paint10_linear_33_486" x1="48.9061" y1="176.541" x2="29.095" y2="186.575" gradientUnits="userSpaceOnUse">
<stop stop-color="#4F52FF"/>
<stop offset="1" stop-color="#4042E2"/>
</linearGradient>
<linearGradient id="paint11_linear_33_486" x1="9173.97" y1="22130.6" x2="8049.34" y2="22962.6" gradientUnits="userSpaceOnUse">
<stop stop-color="#53D8FF"/>
<stop offset="1" stop-color="#3840F7"/>
</linearGradient>
<linearGradient id="paint12_linear_33_486" x1="21837.2" y1="36565.3" x2="19030.3" y2="37414.7" gradientUnits="userSpaceOnUse">
<stop stop-color="#4F52FF"/>
<stop offset="1" stop-color="#4042E2"/>
</linearGradient>
<linearGradient id="paint13_linear_33_486" x1="12772.8" y1="21491.1" x2="11750.2" y2="22220.7" gradientUnits="userSpaceOnUse">
<stop stop-color="#53D8FF"/>
<stop offset="1" stop-color="#3840F7"/>
</linearGradient>
<linearGradient id="paint14_linear_33_486" x1="27129" y1="35428.6" x2="25013.1" y2="35877.4" gradientUnits="userSpaceOnUse">
<stop stop-color="#4F52FF"/>
<stop offset="1" stop-color="#4042E2"/>
</linearGradient>
<linearGradient id="paint15_linear_33_486" x1="15507" y1="20887.7" x2="14571.1" y2="21533.7" gradientUnits="userSpaceOnUse">
<stop stop-color="#53D8FF"/>
<stop offset="1" stop-color="#3840F7"/>
</linearGradient>
<linearGradient id="paint16_linear_33_486" x1="8865.99" y1="19915.9" x2="7862.17" y2="25053.2" gradientUnits="userSpaceOnUse">
<stop stop-color="#4F52FF"/>
<stop offset="1" stop-color="#4042E2"/>
</linearGradient>
<linearGradient id="paint17_linear_33_486" x1="12955.1" y1="17951.2" x2="10525.7" y2="26813.7" gradientUnits="userSpaceOnUse">
<stop stop-color="#4F52FF"/>
<stop offset="1" stop-color="#4042E2"/>
</linearGradient>
<linearGradient id="paint18_linear_33_486" x1="15699.3" y1="19156.3" x2="12491.6" y2="25728.6" gradientUnits="userSpaceOnUse">
<stop stop-color="#4F52FF"/>
<stop offset="1" stop-color="#4042E2"/>
</linearGradient>
<linearGradient id="paint19_linear_33_486" x1="153120" y1="120066" x2="134271" y2="118599" gradientUnits="userSpaceOnUse">
<stop stop-color="#09005D"/>
<stop offset="1" stop-color="#1A0F91"/>
</linearGradient>
<linearGradient id="paint20_linear_33_486" x1="196.823" y1="22.609" x2="141.592" y2="95.286" gradientUnits="userSpaceOnUse">
<stop stop-color="#FEBBBA"/>
<stop offset="1" stop-color="#FDACA9"/>
</linearGradient>
<linearGradient id="paint21_linear_33_486" x1="220.171" y1="111.684" x2="219.88" y2="111.662" gradientUnits="userSpaceOnUse">
<stop stop-color="#09005D"/>
<stop offset="1" stop-color="#1A0F91"/>
</linearGradient>
<linearGradient id="paint22_linear_33_486" x1="123.838" y1="113.45" x2="123.834" y2="113.455" gradientUnits="userSpaceOnUse">
<stop stop-color="#53EAC9"/>
<stop offset="1" stop-color="#45AED8"/>
</linearGradient>
<linearGradient id="paint23_linear_33_486" x1="75265.3" y1="38155.1" x2="79983.7" y2="51832.7" gradientUnits="userSpaceOnUse">
<stop stop-color="#09005D"/>
<stop offset="1" stop-color="#1A0F91"/>
</linearGradient>
<linearGradient id="paint24_linear_33_486" x1="19297.9" y1="19316.6" x2="18927" y2="19287.8" gradientUnits="userSpaceOnUse">
<stop stop-color="#FEBBBA"/>
<stop offset="1" stop-color="#FF928E"/>
</linearGradient>
<linearGradient id="paint25_linear_33_486" x1="49668" y1="184006" x2="79595.1" y2="195487" gradientUnits="userSpaceOnUse">
<stop stop-color="#09005D"/>
<stop offset="1" stop-color="#1A0F91"/>
</linearGradient>
<linearGradient id="paint26_linear_33_486" x1="30652.9" y1="28620" x2="36779.3" y2="36426.2" gradientUnits="userSpaceOnUse">
<stop stop-color="#09005D"/>
<stop offset="1" stop-color="#1A0F91"/>
</linearGradient>
<linearGradient id="paint27_linear_33_486" x1="17139.9" y1="24554.9" x2="16863.4" y2="24533.4" gradientUnits="userSpaceOnUse">
<stop stop-color="#FEBBBA"/>
<stop offset="1" stop-color="#FF928E"/>
</linearGradient>
<linearGradient id="paint28_linear_33_486" x1="79768.5" y1="182443" x2="118869" y2="202309" gradientUnits="userSpaceOnUse">
<stop stop-color="#09005D"/>
<stop offset="1" stop-color="#1A0F91"/>
</linearGradient>
<linearGradient id="paint29_linear_33_486" x1="56004.4" y1="27904" x2="54861.3" y2="27225.4" gradientUnits="userSpaceOnUse">
<stop stop-color="#FEBBBA"/>
<stop offset="0.90625" stop-color="#FFB3B0"/>
</linearGradient>
<linearGradient id="paint30_linear_33_486" x1="186.027" y1="118.77" x2="161.579" y2="98.0249" gradientUnits="userSpaceOnUse">
<stop stop-color="#9CFFFB"/>
<stop offset="1" stop-color="#9BFFFA"/>
</linearGradient>
<linearGradient id="paint31_linear_33_486" x1="46912.7" y1="33836.1" x2="46316.9" y2="33479.1" gradientUnits="userSpaceOnUse">
<stop stop-color="#DAE3FE"/>
<stop offset="1" stop-color="#E9EFFD"/>
</linearGradient>
<linearGradient id="paint32_linear_33_486" x1="19553" y1="34339.2" x2="19133.1" y2="34306.6" gradientUnits="userSpaceOnUse">
<stop stop-color="#DAE3FE"/>
<stop offset="1" stop-color="#E9EFFD"/>
</linearGradient>
<linearGradient id="paint33_linear_33_486" x1="66204.4" y1="83825.5" x2="74372.3" y2="120245" gradientUnits="userSpaceOnUse">
<stop stop-color="#FFC444"/>
<stop offset="1" stop-color="#F36F56"/>
</linearGradient>
<linearGradient id="paint34_linear_33_486" x1="18706.6" y1="5572.15" x2="18661.1" y2="6156.44" gradientUnits="userSpaceOnUse">
<stop stop-color="#09005D"/>
<stop offset="1" stop-color="#1A0F91"/>
</linearGradient>
<linearGradient id="paint35_linear_33_486" x1="36200.8" y1="7143.12" x2="36035.4" y2="9030.67" gradientUnits="userSpaceOnUse">
<stop stop-color="#09005D"/>
<stop offset="1" stop-color="#1A0F91"/>
</linearGradient>
<linearGradient id="paint36_linear_33_486" x1="41370.9" y1="21553.7" x2="39866.3" y2="21436.6" gradientUnits="userSpaceOnUse">
<stop stop-color="#FEBBBA"/>
<stop offset="1" stop-color="#FF9D9A"/>
</linearGradient>
<linearGradient id="paint37_linear_33_486" x1="70921" y1="14715.3" x2="67158.7" y2="14422.5" gradientUnits="userSpaceOnUse">
<stop stop-color="#DAE3FE"/>
<stop offset="1" stop-color="#E9EFFD"/>
</linearGradient>
<linearGradient id="paint38_linear_33_486" x1="76146.5" y1="17834.1" x2="71842.7" y2="17499.2" gradientUnits="userSpaceOnUse">
<stop stop-color="#DAE3FE"/>
<stop offset="1" stop-color="#E9EFFD"/>
</linearGradient>
<linearGradient id="paint39_linear_33_486" x1="128594" y1="26880.4" x2="133000" y2="29365.2" gradientUnits="userSpaceOnUse">
<stop stop-color="#FEBBBA"/>
<stop offset="1" stop-color="#FF928E"/>
</linearGradient>
<linearGradient id="paint40_linear_33_486" x1="124651" y1="31760.5" x2="136217" y2="45416.9" gradientUnits="userSpaceOnUse">
<stop stop-color="#09005D"/>
<stop offset="1" stop-color="#1A0F91"/>
</linearGradient>
<linearGradient id="paint41_linear_33_486" x1="30717.9" y1="9240.49" x2="31931.6" y2="9732.47" gradientUnits="userSpaceOnUse">
<stop stop-color="#FEBBBA"/>
<stop offset="1" stop-color="#FF928E"/>
</linearGradient>
<clipPath id="clip0_33_486">
<rect width="233.848" height="233.848" fill="white" transform="translate(18.415 0.538818) rotate(4.44978)"/>
</clipPath>
</defs>
</svg>
