<svg width="287" height="318" viewBox="0 0 287 318" fill="none" xmlns="http://www.w3.org/2000/svg">
<path d="M92.464 42.3551L274.616 65.4526C278.804 66.0229 281.685 71.3011 280.966 75.1479L237.14 309.859C236.144 315.193 230.557 315.261 226.487 314.057L51.3991 262.277C48.2013 261.331 46.1324 257.82 46.7651 254.432L85.3711 47.6785C86.0033 44.293 89.1773 41.9083 92.464 42.3551Z" fill="#97A6B7"/>
<path d="M90.1372 40.2893L272.35 65.0332C276.539 65.6019 279.364 69.2017 278.642 73.0708L234.557 309.166C233.834 313.035 229.934 315.191 225.865 313.984L48.8294 261.511C45.6324 260.563 43.5666 257.035 44.203 253.626L83.0369 45.6527C83.6714 42.2437 86.8445 39.8421 90.1372 40.2893Z" fill="#D8DEE8"/>
<path opacity="0.74" d="M226.321 311.378C228.517 312.025 230.625 310.853 231.015 308.765L275.063 72.8682C275.453 70.7803 273.928 68.8282 271.669 68.5173L89.4723 43.4192C87.6931 43.1735 85.9689 44.4771 85.6242 46.3233L46.6669 254.957C46.322 256.805 47.4451 258.72 49.175 259.229L226.321 311.378Z" fill="white"/>
<path d="M61.9901 255.212L212.954 298.96L253.576 81.4087L98.7076 58.5728L61.9901 255.212Z" fill="url(#paint0_linear_26_7)"/>
<g style="mix-blend-mode:multiply" opacity="0.3">
<path d="M159.639 71.2109L221.529 83.562L222.723 69.4561C222.954 67.6373 221.915 65.9157 220.234 65.3296L210.027 61.7699C209.426 61.5531 208.889 61.1938 208.463 60.7242C208.037 60.2547 207.736 59.6897 207.588 59.0802L206.906 56.4192L179.114 52.9675L159.639 71.2109Z" fill="#97A6B7"/>
</g>
<path d="M128.787 55.722C129.376 54.1979 130.842 53.3256 132.444 53.5501L142.384 54.9482C146.895 55.5828 150.856 52.5496 151.554 47.9014L153.171 37.1311C153.471 35.1393 155.176 33.8165 157.135 34.0621L160.41 34.4719C162.907 34.7858 164.959 32.9093 165.083 30.3198C165.302 25.7951 169.028 22.5495 173.452 23.0669C177.91 23.5877 181.39 27.7288 181.211 32.3195C181.18 33.0126 181.294 33.7049 181.544 34.3538C182.255 36.1803 183.87 37.411 185.634 37.6395L189.016 38.0631C191.062 38.3202 192.72 40.1045 192.858 42.2043L193.607 53.5839C193.932 58.5058 197.83 62.7452 202.682 63.4282L213.586 64.9599C215.372 65.2106 216.917 66.5705 217.432 68.3462L221.527 82.5274C221.863 83.6887 220.992 84.7133 219.821 84.5351L125.467 70.1448C124.433 69.9872 123.754 68.7992 124.134 67.8138L128.787 55.722ZM173.055 32.5771C174.361 32.7383 175.469 31.779 175.525 30.4357C175.582 29.0925 174.566 27.875 173.259 27.7186C171.952 27.5623 170.854 28.5214 170.797 29.8605C170.74 31.1997 171.751 32.4153 173.055 32.5771Z" fill="url(#paint1_linear_26_7)"/>
<path d="M127.918 55.5574C128.508 54.0344 129.974 53.1612 131.581 53.3875L141.521 54.7847C146.032 55.4193 149.993 52.3862 150.691 47.7391L152.309 36.9685C152.608 34.9775 154.313 33.6548 156.271 33.9004L159.546 34.3102C162.044 34.6231 164.096 32.7468 164.221 30.1575C164.439 25.6327 168.164 22.3882 172.589 22.9057C177.048 23.4267 180.527 27.5675 180.348 32.1581C180.318 32.8511 180.431 33.5432 180.68 34.1923C181.392 36.0187 183.007 37.2494 184.771 37.4779L188.151 37.9074C190.198 38.1635 191.856 39.9477 191.994 42.0485L192.735 53.418C193.059 58.3386 196.957 62.5789 201.81 63.261L212.713 64.7927C214.499 65.0433 216.044 66.4032 216.559 68.1789L220.654 82.3596C220.99 83.5218 220.119 84.5464 218.948 84.3672L124.592 69.9815C123.56 69.8241 122.88 68.6349 123.26 67.6508L127.918 55.5574ZM172.183 32.4139C173.491 32.5743 174.597 31.6158 174.653 30.2717C174.71 28.9275 173.694 27.712 172.388 27.5548C171.082 27.3977 169.982 28.3574 169.925 29.6974C169.868 31.0375 170.879 32.2541 172.183 32.4139Z" fill="#97A6B7"/>
<g style="mix-blend-mode:soft-light" opacity="0.5">
<path d="M142.833 65.5937C152.158 61.905 157.867 66.8206 164.174 61.8733C170.924 56.5775 168.727 47.5347 175.222 44.6752C179.381 42.8442 182.256 45.682 186.674 45.7995C188.291 45.8428 190.087 45.5168 192.06 44.6054L192.658 54.2152C192.967 59.1989 196.847 63.4816 201.688 64.1596L212.574 65.6812C214.355 65.93 215.894 67.303 216.403 69.1L220.451 83.451C220.783 84.6271 219.91 85.6673 218.742 85.4891L133.18 72.49C135.96 69.4274 139.153 67.0471 142.833 65.5937Z" fill="white"/>
</g>
<path d="M154.514 182.261C154.599 182.277 154.685 182.276 154.769 182.258C154.853 182.24 154.933 182.206 155.003 182.158C155.074 182.109 155.135 182.047 155.181 181.975C155.228 181.903 155.26 181.823 155.276 181.739L172.818 87.7895C172.834 87.704 172.832 87.6163 172.813 87.5316C172.794 87.4468 172.758 87.3667 172.708 87.2959C172.659 87.2243 172.596 87.1634 172.523 87.1168C172.45 87.0703 172.369 87.039 172.283 87.0251L106.133 75.5787C105.964 75.5497 105.79 75.5886 105.649 75.6868C105.508 75.785 105.412 75.9347 105.38 76.1035L88.3434 167.343C88.3121 167.51 88.3473 167.683 88.4414 167.824C88.5356 167.966 88.6813 168.065 88.8476 168.101L154.492 182.257L154.514 182.261ZM171.414 88.2007L154.116 180.838L89.7483 166.959L106.55 76.9773L171.414 88.2007Z" fill="white"/>
<path d="M116.048 120.637C116.048 120.637 115.755 117.669 113.9 117.024C112.046 116.379 110.473 115.788 109.564 117.647C108.655 119.506 108.779 121.852 112.252 122.811C115.725 123.77 116.048 120.637 116.048 120.637Z" fill="white"/>
<path d="M114.308 110.765C114.308 110.765 112.633 109.625 111.811 111.121C110.989 112.616 110.646 114.474 112.269 115.884C113.892 117.293 116.033 117.428 117.003 115.131C117.973 112.835 115.823 111.329 114.308 110.765Z" fill="white"/>
<path d="M119.171 110.562C119.894 109.718 120.927 107.302 119.48 105.834C117.588 103.922 116.536 103.2 115.216 104.15C113.896 105.1 112.035 108.149 113.535 110.099C115.143 112.195 117.544 112.46 119.171 110.562Z" fill="white"/>
<path d="M119.626 105.202C119.853 105.281 120.094 105.311 120.334 105.289C120.574 105.266 120.806 105.192 121.016 105.072C121.365 104.867 121.642 104.556 121.809 104.183C122.307 103.078 120.712 100.694 119.131 99.8071C117.55 98.9205 115.249 100.56 116.289 102.574C117.078 104.082 117.808 104.584 119.626 105.202Z" fill="white"/>
<path d="M124.703 101.852C124.703 101.852 125.843 99.9389 125.106 98.2915C124.369 96.6441 123.777 95.6313 122.408 95.9904C121.038 96.3496 119.401 98.1664 120.637 99.9015C121.872 101.636 123.42 103.132 124.703 101.852Z" fill="white"/>
<path d="M126.494 98.2457C126.654 98.2329 126.81 98.181 126.948 98.0942C127.086 98.0075 127.202 97.8884 127.288 97.7466C127.592 97.2584 127.785 96.7057 127.851 96.1314C127.917 95.557 127.855 94.9764 127.67 94.4345C126.942 92.2183 126.497 91.5429 124.957 92.1616C123.416 92.7803 122.706 93.5442 122.819 94.4598C122.933 95.3754 124.042 97.0616 124.761 97.7872C125.222 98.2466 125.995 98.281 126.494 98.2457Z" fill="white"/>
<path d="M131.574 91.0065C131.574 91.0065 131.237 89.493 129.229 90.2979C127.222 91.1028 126.574 91.2743 127.014 92.2241C127.455 93.1738 128.285 95.3561 130.132 95.3987C131.979 95.4412 132.456 92.909 131.574 91.0065Z" fill="white"/>
<path d="M134.39 95.32C135.279 95.4796 135.683 94.9544 136.195 93.8519C136.706 92.7494 137.139 90.4329 136.95 89.8055C136.761 89.178 135.522 89.2544 134.285 89.3332C133.048 89.412 131.813 89.4913 131.706 90.0687C131.598 90.646 131.381 94.7794 134.39 95.32Z" fill="white"/>
<path d="M146.481 127.182C146.481 127.182 147.819 124.527 149.772 124.61C151.725 124.693 153.415 124.723 153.592 126.8C153.769 128.877 152.803 131.026 149.212 130.622C145.622 130.218 146.481 127.182 146.481 127.182Z" fill="white"/>
<path d="M151.817 117.767C151.817 117.767 153.795 117.312 154.019 119.009C154.243 120.707 153.896 122.574 151.867 123.291C149.838 124.009 147.811 123.344 147.735 120.852C147.658 118.359 150.203 117.739 151.817 117.767Z" fill="white"/>
<path d="M147.356 115.821C146.988 114.775 146.899 112.158 148.769 111.313C151.218 110.205 152.462 109.907 153.354 111.266C154.246 112.625 154.889 116.156 152.776 117.435C150.514 118.802 148.186 118.176 147.356 115.821Z" fill="white"/>
<path d="M147.99 110.497C147.751 110.49 147.516 110.432 147.302 110.326C147.087 110.22 146.897 110.069 146.744 109.881C146.493 109.569 146.346 109.181 146.324 108.774C146.259 107.571 148.6 105.917 150.395 105.649C152.191 105.382 153.762 107.727 152.056 109.234C150.773 110.368 149.91 110.571 147.99 110.497Z" fill="white"/>
<path d="M145.384 105.726C145.384 105.726 144.886 103.525 146.331 102.279C147.777 101.033 148.826 100.317 150.185 101.166C151.544 102.016 152.641 104.331 150.599 105.471C148.557 106.611 146.288 107.399 145.384 105.726Z" fill="white"/>
<path d="M144.093 101.543C143.949 101.475 143.823 101.373 143.726 101.243C143.629 101.114 143.564 100.961 143.535 100.798C143.428 100.235 143.448 99.6513 143.593 99.0929C143.737 98.5346 144.004 98.0167 144.371 97.5799C145.849 95.7643 146.508 95.2876 147.727 96.3925C148.946 97.4973 149.339 98.466 148.902 99.2797C148.465 100.093 146.814 101.283 145.879 101.71C145.28 101.988 144.546 101.75 144.093 101.543Z" fill="white"/>
<path d="M141.972 92.9667C141.972 92.9667 142.832 91.6679 144.418 93.1121C146.004 94.5563 146.553 94.9474 145.796 95.6841C145.039 96.4207 143.473 98.174 141.73 97.5687C139.987 96.9634 140.463 94.438 141.972 92.9667Z" fill="white"/>
<path d="M137.786 95.9542C136.9 95.7951 136.712 95.1643 136.634 93.9541C136.555 92.7439 136.986 90.4324 137.389 89.9057C137.792 89.3789 138.922 89.8744 140.049 90.377C141.177 90.8795 142.311 91.376 142.203 91.9556C142.095 92.5353 140.803 96.4964 137.786 95.9542Z" fill="white"/>
<path d="M114.5 128.927C114.5 128.927 113.156 131.586 111.199 131.491C109.241 131.397 107.566 131.356 107.392 129.28C107.217 127.204 108.179 125.062 111.756 125.467C115.332 125.872 114.5 128.927 114.5 128.927Z" fill="white"/>
<path d="M109.323 137.462C109.323 137.462 107.354 137.898 107.13 136.192C106.906 134.487 107.258 132.62 109.276 131.914C111.294 131.207 113.333 131.883 113.406 134.396C113.478 136.908 110.935 137.509 109.323 137.462Z" fill="white"/>
<path d="M113.615 140.313C113.983 141.372 114.073 144.011 112.198 144.832C109.75 145.903 108.511 146.18 107.626 144.8C106.741 143.42 106.111 139.877 108.209 138.621C110.459 137.278 112.787 137.934 113.615 140.313Z" fill="white"/>
<path d="M112.115 145.427C112.356 145.438 112.592 145.501 112.806 145.612C113.021 145.723 113.21 145.88 113.361 146.071C113.611 146.393 113.756 146.788 113.776 147.201C113.84 148.421 111.495 150.051 109.704 150.29C107.913 150.528 106.367 148.126 108.061 146.638C109.342 145.511 110.202 145.321 112.115 145.427Z" fill="white"/>
<path d="M115.636 150.409C115.636 150.409 116.005 152.625 114.726 153.883C113.446 155.142 112.531 155.864 111.387 155.011C110.244 154.159 109.378 151.844 111.152 150.693C112.927 149.542 114.905 148.73 115.636 150.409Z" fill="white"/>
<path d="M116.007 154.41C116.152 154.482 116.278 154.589 116.375 154.721C116.472 154.854 116.537 155.009 116.565 155.173C116.673 155.738 116.653 156.324 116.507 156.884C116.362 157.444 116.094 157.963 115.726 158.402C114.249 160.192 113.592 160.653 112.383 159.499C111.174 158.345 110.789 157.364 111.224 156.558C111.659 155.752 113.299 154.594 114.229 154.189C114.825 153.93 115.556 154.188 116.007 154.41Z" fill="white"/>
<path d="M118.132 162.995C118.132 162.995 117.272 164.278 115.695 162.778C114.118 161.279 113.577 160.875 114.33 160.157C115.082 159.438 116.64 157.718 118.374 158.369C120.107 159.02 119.637 161.559 118.132 162.995Z" fill="white"/>
<path d="M122.317 159.975C123.202 160.159 123.388 160.797 123.467 162.012C123.547 163.227 123.116 165.534 122.713 166.05C122.311 166.566 121.187 166.028 120.064 165.491C118.942 164.954 117.822 164.419 117.93 163.844C118.037 163.269 119.324 159.35 122.317 159.975Z" fill="white"/>
<path d="M144.939 135.442C144.939 135.442 145.229 138.399 147.075 139.054C148.921 139.709 150.503 140.315 151.415 138.459C152.326 136.603 152.201 134.251 148.716 133.28C145.231 132.309 144.939 135.442 144.939 135.442Z" fill="white"/>
<path d="M146.673 145.315C146.673 145.315 148.349 146.477 149.168 144.989C149.987 143.502 150.335 141.644 148.706 140.221C147.077 138.798 144.952 138.655 143.985 140.932C143.018 143.209 145.162 144.736 146.673 145.315Z" fill="white"/>
<path d="M141.817 145.488C141.098 146.321 140.073 148.718 141.507 150.202C143.386 152.15 144.435 152.893 145.754 151.966C147.073 151.039 148.942 148.003 147.437 146.024C145.827 143.907 143.436 143.614 141.817 145.488Z" fill="white"/>
<path d="M140.314 151.605C140.09 151.522 139.852 151.488 139.614 151.506C139.377 151.523 139.145 151.593 138.934 151.708C138.588 151.903 138.311 152.207 138.145 152.574C137.653 153.66 139.236 156.063 140.81 156.981C142.384 157.9 144.688 156.322 143.642 154.293C142.856 152.766 142.127 152.256 140.314 151.605Z" fill="white"/>
<path d="M136.167 155.089C136.167 155.089 134.911 156.942 135.808 158.636C136.705 160.33 137.423 161.387 138.992 161.109C140.562 160.83 142.415 159.095 140.925 157.276C139.436 155.456 137.61 153.876 136.167 155.089Z" fill="white"/>
<path d="M133.451 158.536C133.294 158.543 133.14 158.591 133.003 158.674C132.866 158.758 132.75 158.874 132.665 159.014C132.362 159.501 132.169 160.052 132.103 160.625C132.037 161.198 132.098 161.777 132.283 162.317C133.004 164.557 133.445 165.247 134.977 164.674C136.51 164.101 137.223 163.354 137.11 162.434C136.996 161.513 135.889 159.789 135.174 159.043C134.716 158.566 133.947 158.512 133.451 158.536Z" fill="white"/>
<path d="M128.542 164.89C128.542 164.89 128.874 166.418 130.87 165.669C132.866 164.92 133.517 164.762 133.078 163.794C132.639 162.826 131.814 160.611 129.975 160.521C128.136 160.432 127.668 162.958 128.542 164.89Z" fill="white"/>
<path d="M125.714 160.609C124.832 160.424 124.43 160.942 123.92 162.039C123.411 163.137 122.978 165.454 123.163 166.095C123.348 166.736 124.577 166.695 125.807 166.653C127.036 166.612 128.271 166.571 128.379 165.99C128.487 165.41 128.716 161.232 125.714 160.609Z" fill="white"/>
<path opacity="0.51" d="M238.046 116.159L177.702 105.216L178.122 102.968L238.477 113.852L238.046 116.159Z" fill="white"/>
<path opacity="0.51" d="M236.881 122.399L176.56 111.332L177.002 108.963L237.335 119.967L236.881 122.399Z" fill="white"/>
<path opacity="0.51" d="M235.713 128.652L175.418 117.448L175.885 114.945L236.193 126.083L235.713 128.652Z" fill="white"/>
<path opacity="0.51" d="M234.561 134.82L174.294 123.468L174.765 120.943L235.045 132.229L234.561 134.82Z" fill="white"/>
<path opacity="0.51" d="M229.83 160.158L169.689 148.128L170.197 145.406L230.352 157.365L229.83 160.158Z" fill="white"/>
<path opacity="0.51" d="M228.851 165.4L168.733 153.249L169.219 150.648L229.35 162.73L228.851 165.4Z" fill="white"/>
<path opacity="0.51" d="M227.709 171.516L167.611 159.256L168.077 156.764L228.187 168.959L227.709 171.516Z" fill="white"/>
<path opacity="0.51" d="M226.567 177.632L166.488 165.271L166.935 162.88L227.026 175.178L226.567 177.632Z" fill="white"/>
<path opacity="0.51" d="M84.6844 177.254L222.605 208.538L223.477 203.869L85.481 172.987L84.6844 177.254Z" fill="white"/>
<path d="M55.2426 185.002C58.8556 182.61 66.1838 180.531 71.7658 182.271C81.735 185.38 90.1506 193.805 81.8278 216.658C73.7082 238.966 65.4363 270.511 54.0822 268.391C47.3466 267.133 45.703 260.802 45.331 255.23C44.9591 249.658 44.5301 240.852 41.1814 240.123C37.8326 239.395 34.5525 247.389 32.5014 252.303C30.4503 257.217 27.5791 263.46 22.4927 261.976C17.4062 260.493 13.2977 247.691 13.4355 228.296C13.5733 208.9 12.6909 178.305 29.5938 176.061C42.3424 174.367 43.7415 192.617 55.2426 185.002Z" fill="white"/>
<path d="M44.962 187.949C41.5209 186.72 40.7715 182.85 37.9942 179.019C37.5996 178.474 37.1769 177.95 36.7278 177.446C43.2374 181.039 46.1507 189.83 54.2092 185.512C51.4229 187.447 48.0041 189.037 44.962 187.949Z" fill="#D8DEE8"/>
<path d="M23.0145 255.306C29.917 254.332 30.6895 233.913 40.0186 230.449C46.8694 227.906 51.6479 235.586 57.7129 231.988C60.7093 230.209 60.412 227.817 64.3658 219.68C71.4499 205.096 77.2413 202.757 76.4165 196.016C75.7737 190.756 71.865 187.427 70.3928 186.166C67.6606 183.831 64.6212 182.763 61.8755 182.351C65.1175 181.541 68.7634 181.321 71.8665 182.291C81.7747 185.378 90.1345 193.794 81.834 216.653C73.7359 238.968 65.4767 270.518 54.188 268.41C47.4912 267.16 45.8634 260.831 45.4994 255.261C45.1354 249.69 44.7182 240.884 41.3889 240.159C38.0595 239.435 34.7892 247.431 32.7443 252.347C30.6994 257.263 27.8376 263.508 22.7811 262.03C19.6342 261.111 16.9447 256.576 15.4134 248.015C16.48 253.963 20.8952 255.605 23.0145 255.306Z" fill="#D8DEE8"/>
<path d="M117.753 199.805C121.637 197.246 129.52 195.027 135.525 196.896C146.254 200.233 155.311 209.264 146.384 233.729C137.671 257.611 128.801 291.384 116.585 289.103C109.338 287.75 107.564 280.969 107.158 275C106.753 269.031 106.283 259.602 102.68 258.815C99.077 258.028 95.5531 266.589 93.3538 271.85C91.1545 277.11 88.0708 283.794 82.5967 282.2C77.1226 280.606 72.6924 266.893 72.8201 246.122C72.9478 225.351 71.9721 192.587 90.1542 190.2C103.865 188.403 105.388 207.948 117.753 199.805Z" fill="white"/>
<path d="M106.407 203.032C102.634 201.68 101.821 197.426 98.7809 193.216C98.35 192.617 97.8883 192.04 97.3974 191.487C104.525 195.433 107.71 205.099 116.54 200.343C113.485 202.474 109.738 204.225 106.407 203.032Z" fill="#D8DEE8"/>
<path d="M82.525 274.946C90.0294 273.923 90.8036 252.054 100.94 248.374C108.384 245.671 113.605 253.913 120.19 250.078C123.445 248.182 123.112 245.619 127.389 236.91C135.048 221.31 141.34 218.823 140.421 211.599C139.704 205.963 135.443 202.384 133.833 201.028C130.854 198.519 127.544 197.369 124.557 196.91C128.08 196.058 132.046 195.828 135.424 196.877C146.214 200.226 155.329 209.267 146.379 233.729C137.643 257.606 128.758 291.376 116.474 289.082C109.187 287.722 107.396 280.938 106.982 274.967C106.568 268.997 106.086 259.565 102.463 258.774C98.8395 257.984 95.3052 266.543 93.0993 271.802C90.8934 277.062 87.7997 283.743 82.2943 282.144C78.8681 281.148 75.9289 276.283 74.2356 267.108C75.4122 273.487 80.2203 275.259 82.525 274.946Z" fill="#D8DEE8"/>
<path d="M187.276 213.205C191.395 210.472 199.745 208.097 206.103 210.081C217.461 213.624 227.039 223.236 217.556 249.324C208.296 274.788 198.859 310.795 185.924 308.38C178.25 306.947 176.381 299.718 175.958 293.36C175.535 287.002 175.049 276.95 171.236 276.119C167.423 275.287 163.678 284.414 161.343 290.023C159.007 295.632 155.724 302.759 149.936 301.068C144.147 299.377 139.464 284.767 139.629 262.629C139.794 240.491 138.8 205.573 158.059 203.005C172.583 201.07 174.17 221.9 187.276 213.205Z" fill="white"/>
<path d="M175.738 216.874C171.811 215.435 170.994 210.808 167.853 206.247C167.406 205.599 166.928 204.974 166.42 204.376C173.834 208.613 177.079 219.114 186.35 213.854C183.14 216.206 179.209 218.146 175.738 216.874Z" fill="#D8DEE8"/>
<path d="M150.134 293.384C158.045 292.279 158.914 268.972 169.61 265.028C177.464 262.132 182.952 270.904 189.904 266.802C193.339 264.775 192.995 262.044 197.522 252.755C205.632 236.114 212.276 233.454 211.319 225.754C210.576 219.748 206.09 215.946 204.398 214.504C201.262 211.837 197.773 210.618 194.626 210.136C198.345 209.221 202.524 208.967 206.084 210.077C217.453 213.623 227.043 223.237 217.555 249.324C208.291 274.787 198.851 310.793 185.902 308.376C178.221 306.941 176.349 299.712 175.924 293.354C175.499 286.996 175.01 276.943 171.192 276.111C167.375 275.278 163.629 284.405 161.292 290.014C158.955 295.622 155.67 302.749 149.876 301.057C146.266 300.003 143.177 294.825 141.41 285.049C142.639 291.845 147.704 293.724 150.134 293.384Z" fill="#D8DEE8"/>
<path d="M165.405 229.505L173.907 231.338C176.857 231.974 178.838 234.712 178.327 237.451L175.972 250.061C175.461 252.802 172.654 254.479 169.711 253.81L161.226 251.883C158.317 251.222 156.375 248.488 156.881 245.774L159.214 233.278C159.721 230.568 162.489 228.876 165.405 229.505Z" fill="url(#paint2_linear_26_7)"/>
<path d="M166.538 234.236L172.08 235.44C173.674 235.787 174.75 237.24 174.48 238.685L173.038 246.409C172.769 247.85 171.256 248.736 169.664 248.379L164.128 247.14C162.547 246.787 161.484 245.334 161.752 243.898L163.187 236.217C163.455 234.78 164.954 233.893 166.538 234.236Z" fill="url(#paint3_linear_26_7)"/>
<path d="M97.9752 215.106L105.704 216.776C108.384 217.356 110.164 219.961 109.671 222.598L107.407 234.728C106.915 237.362 104.342 239.003 101.668 238.393L93.9552 236.635C91.31 236.031 89.5661 233.427 90.0538 230.815L92.2982 218.796C92.7857 216.185 95.3245 214.532 97.9752 215.106Z" fill="url(#paint4_linear_26_7)"/>
<path d="M98.4939 219.722L103.609 220.84C105.08 221.163 106.055 222.595 105.785 224.041L104.342 231.768C104.072 233.214 102.661 234.117 101.191 233.785L96.0831 232.633C94.6208 232.304 93.6598 230.872 93.9284 229.434L95.3635 221.748C95.632 220.31 97.0327 219.403 98.4939 219.722Z" fill="url(#paint5_linear_26_7)"/>
<path d="M36.9026 201.894L44.248 203.478C46.7936 204.027 48.4772 206.524 48.0056 209.05L45.8305 220.699C45.358 223.229 42.9095 224.812 40.3721 224.235L33.0418 222.57C30.5279 222 28.8745 219.504 29.3429 216.996L31.498 205.454C31.6056 204.861 31.8326 204.296 32.1654 203.794C32.4982 203.291 32.93 202.86 33.4348 202.527C33.9396 202.195 34.507 201.967 35.1029 201.859C35.6988 201.75 36.311 201.762 36.9026 201.894Z" fill="url(#paint6_linear_26_7)"/>
<path d="M37.4396 206.514L42.1277 207.537C42.7788 207.681 43.349 208.071 43.7194 208.626C44.0898 209.181 44.2317 209.857 44.1156 210.514L42.7685 217.728C42.7103 218.047 42.588 218.35 42.4088 218.62C42.2297 218.89 41.9975 219.12 41.7264 219.297C41.4553 219.474 41.1511 219.595 40.8321 219.65C40.5131 219.706 40.1862 219.697 39.8711 219.622L35.1888 218.569C34.5419 218.419 33.9771 218.027 33.611 217.474C33.2449 216.92 33.1055 216.246 33.2215 215.593L34.5615 208.417C34.6191 208.1 34.7403 207.797 34.9179 207.528C35.0954 207.259 35.3256 207.029 35.5945 206.851C35.8634 206.673 36.1655 206.552 36.4826 206.494C36.7998 206.436 37.1253 206.443 37.4396 206.514Z" fill="url(#paint7_linear_26_7)"/>
<path d="M163.657 229.179L172.161 231.012C175.109 231.647 177.091 234.385 176.58 237.124L174.225 249.735C173.713 252.475 170.907 254.153 167.965 253.484L159.478 251.557C156.568 250.895 154.627 248.161 155.134 245.448L157.467 232.952C157.973 230.242 160.741 228.55 163.657 229.179Z" fill="url(#paint8_linear_26_7)"/>
<path d="M96.2279 214.779L103.958 216.45C106.637 217.03 108.417 219.634 107.924 222.272L105.659 234.401C105.167 237.036 102.595 238.677 99.9213 238.067L92.2078 236.308C89.5627 235.705 87.8187 233.101 88.3064 230.489L90.5508 218.47C91.0383 215.859 93.5772 214.206 96.2279 214.779Z" fill="url(#paint9_linear_26_7)"/>
<path d="M35.1552 201.568L42.5007 203.152C45.0521 203.702 46.7299 206.198 46.2582 208.724L44.0832 220.372C43.6106 222.903 41.1631 224.486 38.6247 223.909L31.2945 222.244C28.7805 221.673 27.1272 219.178 27.5955 216.67L29.7506 205.128C29.8582 204.535 30.0852 203.97 30.4181 203.467C30.7509 202.964 31.1827 202.534 31.6875 202.201C32.1922 201.869 32.7596 201.641 33.3556 201.532C33.9515 201.423 34.5636 201.436 35.1552 201.568Z" fill="url(#paint10_linear_26_7)"/>
<path d="M165.601 242.197L166.199 239.451C165.504 239.3 95.9903 224.263 36.9158 210.935L36.2919 213.676C95.3739 227.007 164.905 242.047 165.601 242.197Z" fill="url(#paint11_linear_26_7)"/>
<path d="M164.79 233.91L170.332 235.114C171.927 235.46 173.002 236.913 172.733 238.358L171.29 246.082C171.021 247.524 169.509 248.41 167.916 248.053L162.38 246.814C160.799 246.46 159.737 245.008 160.005 243.571L161.439 235.891C161.708 234.453 163.207 233.567 164.79 233.91Z" fill="#2213AC"/>
<path d="M96.7473 219.396L101.86 220.514C103.332 220.836 104.308 222.268 104.038 223.714L102.595 231.442C102.325 232.888 100.913 233.791 99.4433 233.459L94.3364 232.307C92.8743 231.978 91.9125 230.546 92.181 229.108L93.6161 221.422C93.8798 219.983 95.2862 219.077 96.7473 219.396Z" fill="#2213AC"/>
<path d="M35.6923 206.188L40.3813 207.211C41.0321 207.355 41.6021 207.745 41.9723 208.3C42.3425 208.855 42.4843 209.531 42.3682 210.187L41.0211 217.402C40.9631 217.72 40.8408 218.024 40.6618 218.294C40.4827 218.563 40.2507 218.794 39.9797 218.971C39.7087 219.148 39.4044 219.268 39.0855 219.324C38.7666 219.38 38.4397 219.37 38.1246 219.296L33.4414 218.242C32.7945 218.093 32.2297 217.701 31.8636 217.147C31.4975 216.593 31.3581 215.92 31.4742 215.266L32.8141 208.09C32.8717 207.773 32.993 207.471 33.1705 207.202C33.3481 206.933 33.5782 206.702 33.8472 206.525C34.1161 206.347 34.4182 206.225 34.7353 206.168C35.0524 206.11 35.3779 206.117 35.6923 206.188Z" fill="#2213AC"/>
<defs>
<linearGradient id="paint0_linear_26_7" x1="127.189" y1="225.606" x2="248.823" y2="27.562" gradientUnits="userSpaceOnUse">
<stop stop-color="#E38DDD"/>
<stop offset="1" stop-color="#9571F6"/>
</linearGradient>
<linearGradient id="paint1_linear_26_7" x1="225.764" y1="60.8484" x2="128.784" y2="42.7398" gradientUnits="userSpaceOnUse">
<stop stop-color="#444B8C"/>
<stop offset="1" stop-color="#26264F"/>
</linearGradient>
<linearGradient id="paint2_linear_26_7" x1="151.562" y1="227.746" x2="177.112" y2="250.069" gradientUnits="userSpaceOnUse">
<stop stop-color="#AA80F9"/>
<stop offset="1" stop-color="#6165D7"/>
</linearGradient>
<linearGradient id="paint3_linear_26_7" x1="-25628.5" y1="29078.6" x2="-24095.5" y2="31005.2" gradientUnits="userSpaceOnUse">
<stop stop-color="#AA80F9"/>
<stop offset="1" stop-color="#6165D7"/>
</linearGradient>
<linearGradient id="paint4_linear_26_7" x1="-53447.4" y1="46981.1" x2="-49031.7" y2="49604.4" gradientUnits="userSpaceOnUse">
<stop stop-color="#AA80F9"/>
<stop offset="1" stop-color="#6165D7"/>
</linearGradient>
<linearGradient id="paint5_linear_26_7" x1="-31450.9" y1="27758.7" x2="-29994.5" y2="29448.3" gradientUnits="userSpaceOnUse">
<stop stop-color="#AA80F9"/>
<stop offset="1" stop-color="#6165D7"/>
</linearGradient>
<linearGradient id="paint6_linear_26_7" x1="-62444.1" y1="42398.4" x2="-59008.9" y2="44092.4" gradientUnits="userSpaceOnUse">
<stop stop-color="#AA80F9"/>
<stop offset="1" stop-color="#6165D7"/>
</linearGradient>
<linearGradient id="paint7_linear_26_7" x1="-34931.5" y1="24684.1" x2="-33636" y2="26160.6" gradientUnits="userSpaceOnUse">
<stop stop-color="#AA80F9"/>
<stop offset="1" stop-color="#6165D7"/>
</linearGradient>
<linearGradient id="paint8_linear_26_7" x1="-42675" y1="50693.7" x2="-39377.1" y2="60626.5" gradientUnits="userSpaceOnUse">
<stop stop-color="#AA80F9"/>
<stop offset="1" stop-color="#6165D7"/>
</linearGradient>
<linearGradient id="paint9_linear_26_7" x1="-51586.5" y1="46367" x2="-48375.3" y2="55311.7" gradientUnits="userSpaceOnUse">
<stop stop-color="#AA80F9"/>
<stop offset="1" stop-color="#6165D7"/>
</linearGradient>
<linearGradient id="paint10_linear_26_7" x1="-59493.1" y1="42302.1" x2="-56501.3" y2="50517.6" gradientUnits="userSpaceOnUse">
<stop stop-color="#AA80F9"/>
<stop offset="1" stop-color="#6165D7"/>
</linearGradient>
<linearGradient id="paint11_linear_26_7" x1="-214378" y1="-21092.7" x2="-387944" y2="-53501.8" gradientUnits="userSpaceOnUse">
<stop stop-color="#AA80F9"/>
<stop offset="1" stop-color="#6165D7"/>
</linearGradient>
</defs>
</svg>
